<svg xmlns="http://www.w3.org/2000/svg" width="145" height="287" viewBox="0 0 145 287">
    <path fill="#FFF" fill-opacity=".04" fill-rule="evenodd" d="M265.658 274.374l-31.722-18.337-1.224-.699C208.22 275.062 177.229 287 143.328 287c-46.803 0-88.246-22.574-114.403-57.312l40.121-23.198c17.864 21.101 44.494 34.523 74.282 34.523 29.787 0 56.417-13.422 74.28-34.523l40.122 23.198 1.257.72L289 247.757a180.41 180.41 0 0 1-23.342 26.618zM45.933 143.5c0 11.561 2.116 22.596 5.8 32.888L11.43 199.693C4.082 182.432 0 163.45 0 143.5 0 64.249 64.173 0 143.33 0c79.159 0 143.331 64.249 143.331 143.5 0 19.95-4.082 38.932-11.429 56.193l-40.304-23.305c3.684-10.292 5.8-21.327 5.8-32.888 0-53.849-43.612-97.513-97.397-97.513-53.796 0-97.398 43.664-97.398 97.513z"/>
</svg>
