<svg xmlns="http://www.w3.org/2000/svg" xmlns:xlink="http://www.w3.org/1999/xlink" width="1200" height="592" viewBox="0 0 1200 592">
    <defs>
        <filter id="a" width="100.8%" height="107.8%" x="-.5%" y="-2.8%" filterUnits="objectBoundingBox">
            <feOffset dy="1" in="SourceAlpha" result="shadowOffsetOuter1"/>
            <feGaussianBlur in="shadowOffsetOuter1" result="shadowBlurOuter1" stdDeviation="1"/>
            <feColorMatrix in="shadowBlurOuter1" result="shadowMatrixOuter1" values="0 0 0 0 0.194415798 0 0 0 0 0.285544953 0 0 0 0 0.376674107 0 0 0 1 0"/>
            <feMerge>
                <feMergeNode in="shadowMatrixOuter1"/>
                <feMergeNode in="SourceGraphic"/>
            </feMerge>
        </filter>
        <radialGradient id="b" cx="-6.123%" cy="-8.593%" r="234.412%" fx="-6.123%" fy="-8.593%" gradientTransform="matrix(.11392 .17765 -.03065 1.4668 -.057 .051)">
            <stop offset="0%" stop-color="#317BDA"/>
            <stop offset="100%" stop-color="#43C8CD"/>
        </radialGradient>
        <path id="c" d="M0 2.994A2.992 2.992 0 0 1 2.993 0h94.014c1.653 0 3.427 1.274 3.963 2.85l14.028 41.21c.177.52.178 1.357 0 1.88L100.97 87.15c-.536 1.574-2.308 2.85-3.963 2.85H2.993A2.995 2.995 0 0 1 0 87.006V2.994z"/>
        <path id="d" d="M885.312 2.815C884.748 1.26 885.626 0 887.287 0h109.327a2.996 2.996 0 0 1 2.996 2.994v84.012A2.991 2.991 0 0 1 996.614 90H887.287c-1.655 0-2.538-1.262-1.975-2.815l14.954-41.245c.188-.52.19-1.357 0-1.88L885.312 2.815z"/>
        <radialGradient id="e" cx="-29.463%" cy="100%" r="129.463%" fx="-29.463%" fy="100%" gradientTransform="matrix(.01404 0 0 1.49051 -.29 -.49)">
            <stop offset="0%" stop-color="#317BDA"/>
            <stop offset="100%" stop-color="#43C8CD"/>
        </radialGradient>
    </defs>
    <g fill="none" fill-rule="evenodd">
        <path fill="#5B7289" d="M0 0h1200v592H0z"/>
        <text fill="#FFF" font-family="MuseoSans-700, Museo Sans" font-size="36" font-weight="500" transform="translate(99 90)">
            <tspan x="331.886" y="34">Qover&apos;s value chain: </tspan> <tspan x="297.596" y="77" font-family="MuseoSans-300, Museo Sans" font-weight="300">more efficient &amp; cheaper</tspan>
        </text>
        <g filter="url(#a)" transform="translate(100 246)">
            <path fill="url(#b)" d="M111.312 2.815C110.748 1.26 111.629 0 113.284 0h94.014c1.653 0 3.427 1.274 3.963 2.85l14.028 41.21c.177.52.178 1.357 0 1.88l-14.028 41.21c-.536 1.574-2.308 2.85-3.963 2.85h-94.014c-1.653 0-2.535-1.262-1.972-2.815l14.954-41.245c.188-.52.19-1.357 0-1.88L111.312 2.815zm111 0C221.748 1.26 222.629 0 224.284 0h94.014c1.653 0 3.427 1.274 3.963 2.85l14.028 41.21c.177.52.178 1.357 0 1.88l-14.028 41.21c-.536 1.574-2.308 2.85-3.963 2.85h-94.014c-1.653 0-2.535-1.262-1.972-2.815l14.954-41.245c.188-.52.19-1.357 0-1.88L222.312 2.815zm110 0C331.748 1.26 332.629 0 334.284 0h94.014c1.653 0 3.427 1.274 3.963 2.85l14.028 41.21c.177.52.178 1.357 0 1.88l-14.028 41.21c-.536 1.574-2.308 2.85-3.963 2.85h-94.014c-1.653 0-2.535-1.262-1.972-2.815l14.954-41.245c.188-.52.19-1.357 0-1.88L332.312 2.815zm111 0C442.748 1.26 443.629 0 445.284 0h94.014c1.653 0 3.427 1.274 3.963 2.85l14.028 41.21c.177.52.178 1.357 0 1.88l-14.028 41.21c-.536 1.574-2.308 2.85-3.963 2.85h-94.014c-1.653 0-2.535-1.262-1.972-2.815l14.954-41.245c.188-.52.19-1.357 0-1.88L443.312 2.815zm110 0C552.748 1.26 553.629 0 555.284 0h94.014c1.653 0 3.427 1.274 3.963 2.85l14.028 41.21c.177.52.178 1.357 0 1.88l-14.028 41.21c-.536 1.574-2.308 2.85-3.963 2.85h-94.014c-1.653 0-2.535-1.262-1.972-2.815l14.954-41.245c.188-.52.19-1.357 0-1.88L553.312 2.815zm111 0C663.748 1.26 664.629 0 666.284 0h94.014c1.653 0 3.427 1.274 3.963 2.85l14.028 41.21c.177.52.178 1.357 0 1.88l-14.028 41.21c-.536 1.574-2.308 2.85-3.963 2.85h-94.014c-1.653 0-2.535-1.262-1.972-2.815l14.954-41.245c.188-.52.19-1.357 0-1.88L664.312 2.815zm110 0C773.748 1.26 774.629 0 776.284 0h94.014c1.653 0 3.427 1.274 3.963 2.85l14.028 41.21c.177.52.178 1.357 0 1.88l-14.028 41.21c-.536 1.574-2.308 2.85-3.963 2.85h-94.014c-1.653 0-2.535-1.262-1.972-2.815l14.954-41.245c.188-.52.19-1.357 0-1.88L774.312 2.815z"/>
            <use fill="#5B7289" fill-opacity=".2" style="mix-blend-mode:multiply" xlink:href="#c"/>
            <path stroke="#42566A" d="M.5 2.994v84.012A2.495 2.495 0 0 0 2.993 89.5h94.014c1.44 0 3.023-1.138 3.49-2.51l14.028-41.211c.142-.417.142-1.142 0-1.558l-14.028-41.21C100.029 1.637 98.447.5 97.007.5H2.993A2.492 2.492 0 0 0 .5 2.994z"/>
            <g>
                <use fill="#5B7289" fill-opacity=".2" style="mix-blend-mode:multiply" xlink:href="#d"/>
                <path stroke="#42566A" d="M885.782 2.645l14.954 41.245c.23.632.229 1.59 0 2.22l-14.954 41.245c-.445 1.228.198 2.145 1.505 2.145h109.327a2.491 2.491 0 0 0 2.496-2.494V2.994A2.496 2.496 0 0 0 996.614.5H887.287c-1.312 0-1.951.914-1.505 2.145z"/>
            </g>
        </g>
        <path stroke="url(#e)" stroke-linecap="round" stroke-linejoin="round" d="M112 105v10h712.04v-10" transform="translate(99 246)"/>
        <path stroke="#FFF" stroke-linecap="round" stroke-linejoin="round" d="M932 351v10h168.348v-10M101 351v10h101.348v-10"/>
        <text fill="#FFF" font-family="Roboto-Bold, Roboto" font-size="16" font-weight="bold" letter-spacing=".889" transform="translate(99 246)">
            <tspan x="0" y="153">The Lloyd’s</tspan>
        </text>
        <path fill="#31CFDA" fill-rule="nonzero" d="M583.858 388.473l2.332 6.01 2.305-6.01h2.76l-4.45 10.572h-1.22l-4.512-10.572h2.785zm25.543-.196a2.3 2.3 0 0 1 1.015.24c.422.224.813.5 1.166.822l-.89 2.384a3.334 3.334 0 0 0-1.78-.893 1.884 1.884 0 0 0-1.184.474 3.356 3.356 0 0 0-1.006 1.303 3.724 3.724 0 0 0-.356 1.554v4.696h-2.59v-10.384h2.59v2.679a7.216 7.216 0 0 1 1.424-2.17 2.257 2.257 0 0 1 1.611-.705zm-67.48 10.74l5.91 3.412a14.941 14.941 0 0 1-1.931 2.223l-2.608-1.51-.098-.062-.374.286c-5.232 3.911-12.635 2.828-16.536-2.42l3.329-1.928a8 8 0 0 0 6.154 2.892 8 8 0 0 0 6.154-2.892zm-14.222-5.231c.001.931.164 1.856.48 2.732l-3.346 1.937a11.935 11.935 0 0 1 3.675-14.081 11.843 11.843 0 0 1 14.51 0 11.935 11.935 0 0 1 3.674 14.081l-3.338-1.937a8.116 8.116 0 0 0-2.05-8.674 8.053 8.053 0 0 0-8.755-1.528 8.1 8.1 0 0 0-4.85 7.47zm37.06 4.839a6.319 6.319 0 0 1-2.207.42 4.893 4.893 0 0 1-4.308-2.572 5.46 5.46 0 0 1-.659-2.678 5.99 5.99 0 0 1 .641-2.849 4.458 4.458 0 0 1 1.78-1.857 5.61 5.61 0 0 1 2.732-.643h4.557v14.072h-2.58l.044-3.893zm-1.362-8.036c-2.1 0-3.15 1.113-3.15 3.34-.038.816.24 1.615.774 2.232.526.59 1.285.917 2.074.893a3.462 3.462 0 0 0 1.664-.438v-6.045l-1.362.018zm11.437-2.312a5.779 5.779 0 0 1 2.794.678 4.777 4.777 0 0 1 1.94 1.866 5.55 5.55 0 0 1 .686 2.768 5.81 5.81 0 0 1-.659 2.822 4.724 4.724 0 0 1-1.94 1.91 5.78 5.78 0 0 1-2.821.697 5.717 5.717 0 0 1-2.813-.697 4.751 4.751 0 0 1-1.922-1.91 5.81 5.81 0 0 1-.659-2.822 5.505 5.505 0 0 1 .73-2.768 4.849 4.849 0 0 1 1.94-1.883 5.726 5.726 0 0 1 2.724-.661zm-2.67 5.357a3.938 3.938 0 0 0 .676 2.464 2.329 2.329 0 0 0 1.931.893 2.435 2.435 0 0 0 1.994-.893 3.92 3.92 0 0 0 .73-2.544 3.651 3.651 0 0 0-.73-2.438 2.47 2.47 0 0 0-1.985-.893 2.355 2.355 0 0 0-1.922.893 3.714 3.714 0 0 0-.703 2.5l.009.018zm24.875-5.357a4.301 4.301 0 0 1 3.391 1.464 6.004 6.004 0 0 1 1.264 4.054v.41h-6.924c.053.81.405 1.571.988 2.134.64.516 1.45.771 2.269.715.61 0 1.213-.116 1.78-.34a7.71 7.71 0 0 0 1.78-1.026v2.035a6.829 6.829 0 0 1-4.192 1.286 5.144 5.144 0 0 1-3.81-1.473 5.313 5.313 0 0 1-1.476-3.929 5.52 5.52 0 0 1 1.361-3.866 4.585 4.585 0 0 1 3.57-1.464zm2.26 4.33a3.095 3.095 0 0 0-.649-1.786 1.884 1.884 0 0 0-1.504-.642 2.097 2.097 0 0 0-1.575.607 3.094 3.094 0 0 0-.757 1.785l4.486.036z"/>
        <text fill="#FFF" font-family="Roboto-Medium, Roboto" font-size="14" font-weight="400" transform="translate(99 246)">
            <tspan x="0" y="195">Loss Ratio</tspan>  <tspan x="0" y="217" font-family="Roboto-Regular, Roboto" font-weight="normal">They focus on </tspan> <tspan x="0" y="233" font-family="Roboto-Regular, Roboto" font-weight="normal">carrying the risk</tspan>
        </text>
        <text fill="#FFF" font-family="Roboto-Bold, Roboto" font-size="14" font-weight="bold" transform="translate(99 246)">
            <tspan x="423.831" y="195">Expense Ratio</tspan> <tspan x="335.616" y="217" font-family="Roboto-Regular, Roboto" font-weight="normal">We focus on offering fully digital and much </tspan> <tspan x="334.403" y="233" font-family="Roboto-Regular, Roboto" font-weight="normal">more efficient products, pricing, IT and OPS</tspan>
        </text>
        <text fill="#FFF" font-family="Roboto-Bold, Roboto" font-size="16" font-weight="bold" letter-spacing=".889" transform="translate(99 246)">
            <tspan x="970.951" y="153">You</tspan>
        </text>
        <text fill="#FFF" font-family="Roboto-Bold, Roboto" font-size="14" font-weight="bold" transform="translate(99 246)">
            <tspan x="885.821" y="195">Commission Ratio</tspan> <tspan x="842.372" y="217" font-family="Roboto-Regular, Roboto" font-weight="normal">You focus on the relation-</tspan> <tspan x="859.407" y="233" font-family="Roboto-Regular, Roboto" font-weight="normal">ship with the customer</tspan>
        </text>
        <g fill="#FFF" font-family="Roboto-Medium, Roboto" font-size="13" font-weight="400">
            <text transform="translate(119 276)">
                <tspan x=".406" y="19">Risk Carrying</tspan>
            </text>
            <text transform="translate(119 276)">
                <tspan x="131.629" y="12">Product</tspan> <tspan x="116.205" y="27">Development</tspan>
            </text>
            <text transform="translate(119 276)">
                <tspan x="246.038" y="12">Pricing</tspan> <tspan x="239.418" y="27">(Actuary)</tspan>
            </text>
            <text transform="translate(119 276)">
                <tspan x="356.8" y="12">Policy</tspan> <tspan x="348.322" y="27">Issuance</tspan>
            </text>
            <text transform="translate(119 276)">
                <tspan x="466.3" y="12">Policy</tspan> <tspan x="457.01" y="27">Servicing</tspan>
            </text>
            <text transform="translate(119 276)">
                <tspan x="575.41" y="12">Claims</tspan> <tspan x="557.068" y="27">Management</tspan>
            </text>
            <text transform="translate(119 276)">
                <tspan x="701.813" y="19">IT</tspan>
            </text>
            <text transform="translate(119 276)">
                <tspan x="784.069" y="12">Marketing</tspan> <tspan x="791.785" y="27">&amp; Sales</tspan>
            </text>
            <text transform="translate(119 276)">
                <tspan x="895.224" y="19">Distribution</tspan>
            </text>
        </g>
    </g>
</svg>
