<?xml version="1.0" encoding="UTF-8"?>
<svg width="136px" height="558px" viewBox="0 0 136 558" version="1.1" xmlns="http://www.w3.org/2000/svg" xmlns:xlink="http://www.w3.org/1999/xlink">
    <!-- Generator: Sketch 46.2 (44496) - http://www.bohemiancoding.com/sketch -->
    <title>value_chain</title>
    <desc>Created with Sketch.</desc>
    <defs>
        <path d="M2.84217094e-14,2.99376176 C2.84217094e-14,1.3403528 1.33801252,0 2.99280137,0 L97.0071986,0 C98.6600772,0 100.363548,1.29055219 100.812764,2.88521244 L115.045935,53.4112428 C115.196366,53.9452544 115.19501,54.8158702 115.045935,55.3450698 L100.812764,105.8711 C100.363887,107.464559 98.6619875,108.756313 97.0071986,108.756313 L2.99280137,108.756313 C1.33992281,108.756313 2.84217094e-14,107.420468 2.84217094e-14,105.762551 L2.84217094e-14,2.99376176 Z" id="path-1"></path>
        <filter x="-1.0%" y="-3.2%" width="102.1%" height="107.3%" filterUnits="objectBoundingBox" id="filter-2">
            <feOffset dx="0" dy="1" in="SourceAlpha" result="shadowOffsetOuter1"></feOffset>
            <feGaussianBlur stdDeviation="1" in="shadowOffsetOuter1" result="shadowBlurOuter1"></feGaussianBlur>
            <feColorMatrix values="0 0 0 0 0.194415798   0 0 0 0 0.285544953   0 0 0 0 0.376674107  0 0 0 1 0" type="matrix" in="shadowBlurOuter1" result="shadowMatrixOuter1"></feColorMatrix>
            <feMerge>
                <feMergeNode in="shadowMatrixOuter1"></feMergeNode>
                <feMergeNode in="SourceGraphic"></feMergeNode>
            </feMerge>
        </filter>
        <radialGradient cx="-6.12275634%" cy="-8.5934273%" fx="-6.12275634%" fy="-8.5934273%" r="234.411921%" gradientTransform="translate(-0.061228,-0.085934),scale(0.324239,1.000000),rotate(26.821725),scale(1.000000,1.490514),translate(0.061228,0.085934)" id="radialGradient-3">
            <stop stop-color="#317BDA" offset="0%"></stop>
            <stop stop-color="#43C8CD" offset="100%"></stop>
        </radialGradient>
        <path d="M442.151159,3.81437565 C441.676219,2.23147244 442.626163,0.948275862 444.286977,0.948275862 L553.613747,0.948275862 C555.268266,0.948275862 556.609519,2.28412065 556.609519,3.94203763 L556.609519,106.710827 C556.609519,108.364236 555.27456,109.704589 553.613747,109.704589 L444.286977,109.704589 C442.632457,109.704589 441.678426,108.414036 442.151159,106.838489 L457.316893,56.2933457 C457.477119,55.7593341 457.475675,54.8887183 457.316893,54.3595187 L442.151159,3.81437565 Z" id="path-4"></path>
    </defs>
    <g id="Mobile---Homepage-07/08" stroke="none" stroke-width="1" fill="none" fill-rule="evenodd">
        <g id="Homepage-+API-(step3)" transform="translate(-19.000000, -1249.000000)">
            <g id="value_chain-copy-2" transform="translate(0.000000, 1061.000000)">
                <g id="value_chain" transform="translate(87.500000, 467.000000) rotate(-270.000000) translate(-87.500000, -467.000000) translate(-191.500000, 399.500000)">
                    <polyline id="Path-5" stroke="#31CFDA" stroke-linecap="round" stroke-linejoin="round" transform="translate(271.000000, 5.923533) scale(1, -1) translate(-271.000000, -5.923533) " points="111 0.847066221 111 11 431 11 431 0.847066221"></polyline>
                    <polyline id="Path-5-Copy" stroke="#FFFFFF" stroke-linecap="round" stroke-linejoin="round" transform="translate(498.673878, 5.923533) scale(1, -1) translate(-498.673878, -5.923533) " points="440 0.847066221 440 11 557.347756 11 557.347756 0.847066221"></polyline>
                    <polyline id="Path-5-Copy" stroke="#FFFFFF" stroke-linecap="round" stroke-linejoin="round" transform="translate(51.673878, 5.923533) scale(1, -1) translate(-51.673878, -5.923533) " points="1 0.847066221 1 11 102.347756 11 102.347756 0.847066221"></polyline>
                    <g id="Group-5" transform="translate(0.000000, 25.000000)">
                        <g id="Rectangle-14">
                            <use fill-opacity="0.2" fill="#5B7289" fill-rule="evenodd" style="mix-blend-mode: multiply;" xlink:href="#path-1"></use>
                            <path stroke="#42566A" stroke-width="1" d="M0.5,2.99376176 L0.5,105.762551 C0.5,107.142688 1.61442659,108.256313 2.99280137,108.256313 L97.0071986,108.256313 C98.4372429,108.256313 99.9431139,107.114231 100.331495,105.735527 L114.564666,55.2094965 C114.689258,54.7672115 114.689633,53.9904339 114.564666,53.5468162 L100.331495,3.02078581 C99.9430869,1.64198532 98.4364794,0.5 97.0071986,0.5 L2.99280137,0.5 C1.61489996,0.5 0.5,1.61574967 0.5,2.99376176 Z"></path>
                        </g>
                        <g id="Group" filter="url(#filter-2)" transform="translate(111.000000, 0.000000)" fill="url(#radialGradient-3)">
                            <path d="M0.15096113,2.86609978 C-0.323978436,1.28319658 0.629019491,-2.84217094e-14 2.28380834,-2.84217094e-14 L96.2982056,-2.84217094e-14 C97.9510842,-2.84217094e-14 99.6545552,1.29055219 100.103771,2.88521244 L114.336942,53.4112428 C114.487373,53.9452544 114.486017,54.8158702 114.336942,55.3450698 L100.103771,105.8711 C99.6548937,107.464559 97.9529945,108.756313 96.2982056,108.756313 L2.28380834,108.756313 C0.630929788,108.756313 -0.321771434,107.46576 0.15096113,105.890213 L15.3166947,55.3450698 C15.4769213,54.8110583 15.4754775,53.9404424 15.3166947,53.4112428 L0.15096113,2.86609978 Z M111.150961,2.86609978 C110.676022,1.28319658 111.629019,-2.84217094e-14 113.283808,-2.84217094e-14 L207.298206,-2.84217094e-14 C208.951084,-2.84217094e-14 210.654555,1.29055219 211.103771,2.88521244 L225.336942,53.4112428 C225.487373,53.9452544 225.486017,54.8158702 225.336942,55.3450698 L211.103771,105.8711 C210.654894,107.464559 208.952994,108.756313 207.298206,108.756313 L113.283808,108.756313 C111.63093,108.756313 110.678229,107.46576 111.150961,105.890213 L126.316695,55.3450698 C126.476921,54.8110583 126.475478,53.9404424 126.316695,53.4112428 L111.150961,2.86609978 Z M221.150961,2.86609978 C220.676022,1.28319658 221.629019,-2.84217094e-14 223.283808,-2.84217094e-14 L317.298206,-2.84217094e-14 C318.951084,-2.84217094e-14 320.654555,1.29055219 321.103771,2.88521244 L335.336942,53.4112428 C335.487373,53.9452544 335.486017,54.8158702 335.336942,55.3450698 L321.103771,105.8711 C320.654894,107.464559 318.952994,108.756313 317.298206,108.756313 L223.283808,108.756313 C221.63093,108.756313 220.678229,107.46576 221.150961,105.890213 L236.316695,55.3450698 C236.476921,54.8110583 236.475478,53.9404424 236.316695,53.4112428 L221.150961,2.86609978 Z" id="Combined-Shape"></path>
                        </g>
                        <g id="Rectangle-14-Copy-8">
                            <use fill-opacity="0.2" fill="#5B7289" fill-rule="evenodd" style="mix-blend-mode: multiply;" xlink:href="#path-4"></use>
                            <path stroke="#42566A" stroke-width="1" d="M442.630066,3.67068266 L457.7958,54.2158257 C457.983179,54.8403329 457.983679,55.8108662 457.7958,56.4370387 L442.630066,106.982182 C442.252798,108.23956 442.970153,109.204589 444.286977,109.204589 L553.613747,109.204589 C554.996157,109.204589 556.109519,108.090356 556.109519,106.710827 L556.109519,3.94203763 C556.109519,2.56201175 554.993875,1.44827586 553.613747,1.44827586 L444.286977,1.44827586 C442.963328,1.44827586 442.250744,2.40645784 442.630066,3.67068266 Z"></path>
                        </g>
                    </g>
                    <g id="text" transform="translate(50.000000, 40.000000)" font-size="13" font-family="Roboto-Medium, Roboto" fill="#FFFFFF" font-weight="400">
                        <text id="Risk-Carrying" transform="translate(8.000000, 39.500000) rotate(-90.000000) translate(-8.000000, -39.500000) ">
                            <tspan x="-30.59375" y="44">Risk Carrying</tspan>
                        </text>
                        <text id="Product-&amp;-Pricing" transform="translate(123.500000, 39.000000) rotate(-90.000000) translate(-123.500000, -39.000000) ">
                            <tspan x="100.629395" y="36">Product</tspan>
                            <tspan x="97.2651367" y="51">&amp; Pricing</tspan>
                        </text>
                        <text id="Operation" transform="translate(236.500000, 39.500000) rotate(-90.000000) translate(-236.500000, -39.500000) ">
                            <tspan x="208.02124" y="44">Operation</tspan>
                        </text>
                        <text id="IT" transform="translate(343.000000, 39.500000) rotate(-90.000000) translate(-343.000000, -39.500000) ">
                            <tspan x="337.3125" y="44">IT</tspan>
                        </text>
                        <text id="Distribution" transform="translate(455.000000, 39.500000) rotate(-90.000000) translate(-455.000000, -39.500000) ">
                            <tspan x="421.224121" y="44">Distribution</tspan>
                        </text>
                    </g>
                </g>
            </g>
        </g>
    </g>
</svg>