<svg xmlns="http://www.w3.org/2000/svg" xmlns:xlink="http://www.w3.org/1999/xlink" width="150" height="26" viewBox="0 0 150 26">
    <defs>
        <path id="a" d="M0 25.128h149.429V0H0z"/>
    </defs>
    <g fill="none" fill-rule="evenodd">
        <path fill="#FFF" d="M7.075 14.76c-.518 1.66-1.63 2.378-3.247 2.378C.963 17.138 0 14.76 0 12.545c0-3.417 1.975-4.594 3.828-4.594 2.32 0 2.902 1.585 3.124 2.167l-1.112.284c-.185-.705-.827-1.534-2.012-1.534-2.001 0-2.619 1.993-2.619 3.677 0 1.325.309 3.677 2.619 3.677 1.272 0 1.876-.804 2.123-1.733l1.124.272zM9.083 13.275c0 1.437.395 2.96 1.939 2.96 1.543 0 1.938-1.523 1.938-2.96 0-1.411-.395-2.922-1.938-2.922-1.544 0-1.939 1.511-1.939 2.922m-1.136.013c0-1.882.84-3.802 3.075-3.802 2.593 0 3.076 2.328 3.076 3.802 0 1.894-.84 3.813-3.076 3.813-2.593 0-3.075-2.327-3.075-3.813M15.797 9.635l1.272 4.184c.197.645.32 1.078.58 2.044h.062c.259-.966.37-1.4.58-2.044l1.334-4.184h1.086l-2.382 7.317h-1.346l-2.397-7.317h1.21zM25.994 12.756c0-1.314-.593-2.402-1.754-2.402-1.136 0-1.753.903-1.902 2.402h3.656zm-3.656.816c.05 1.97.963 2.662 1.94 2.662 1.184 0 1.641-.89 1.752-1.288l.952.335c-.47 1.127-1.371 1.82-2.705 1.82-2.593 0-3.075-2.328-3.075-3.813 0-1.473.482-3.801 3.075-3.801 2.1 0 2.853 1.82 2.853 3.54v.545h-4.792zM28.46 9.635h1.086v1.3h.025c.642-.892 1.494-1.374 2.408-1.374v1.089c-.543 0-1.519 0-2.433 1.226v5.076H28.46V9.635zM33.026 7.333h1.087v3.49c.592-.53 1.358-1.336 2.469-1.336 1.124 0 1.815.681 1.803 2.067v5.399h-1.086V11.95c0-.743-.174-1.472-1.075-1.472-1.013 0-1.667.742-2.111 1.263v5.212h-1.087v-9.62zM40.85 13.275c0 1.437.395 2.96 1.939 2.96 1.543 0 1.938-1.523 1.938-2.96 0-1.411-.395-2.922-1.938-2.922-1.544 0-1.938 1.511-1.938 2.922m-1.137.013c0-1.882.84-3.802 3.075-3.802 2.593 0 3.076 2.328 3.076 3.802 0 1.894-.84 3.813-3.076 3.813-2.592 0-3.075-2.327-3.075-3.813"/>
        <mask id="b" fill="#fff">
            <use xlink:href="#a"/>
        </mask>
        <path fill="#FFF" d="M47.28 16.952h1.087v-9.62H47.28zM54.453 11.492c-.395-.556-1.063-1.089-1.766-1.089-1.569 0-1.766 1.832-1.766 2.786 0 1.201.26 2.996 1.778 2.996.938 0 1.555-.68 1.754-1.101v-3.592zm1.086 5.46h-1.086V16h-.025a2.332 2.332 0 0 1-2 1.102c-1.643 0-2.643-1.411-2.643-3.838 0-2.96 1.42-3.777 2.544-3.777.728 0 1.345.224 2.124 1.103V7.333h1.086v9.62zM61.66 12.756c0-1.314-.593-2.402-1.752-2.402-1.137 0-1.755.903-1.903 2.402h3.655zm-3.655.816c.05 1.97.963 2.662 1.94 2.662 1.184 0 1.64-.89 1.752-1.288l.951.335c-.469 1.127-1.37 1.82-2.704 1.82-2.594 0-3.076-2.328-3.076-3.813 0-1.473.482-3.801 3.076-3.801 2.1 0 2.852 1.82 2.852 3.54v.545h-4.791zM64.127 9.635h1.086v1.3h.025c.642-.892 1.494-1.374 2.408-1.374v1.089c-.543 0-1.519 0-2.433 1.226v5.076h-1.086V9.635zM75.248 13.263c-1.556 0-2.47.496-2.47 1.598 0 .667.32 1.3 1.222 1.3.446 0 1.038-.113 2.037-1.251v-1.647h-.79zm-3.211-1.944c.333-.88.877-1.832 2.642-1.832 2.162 0 2.445 1.473 2.445 2.762v3.85c0 .16 0 .445.062.854h-1.149v-1.24h-.024c-.704.93-1.42 1.314-2.284 1.314-1.507 0-2.037-1.114-2.037-2.068 0-1.672 1.284-2.512 3.297-2.512h1.048v-.472c0-.494 0-1.671-1.419-1.671-.902 0-1.321.508-1.642 1.3l-.939-.285zM79.269 8.41l1.087-.459v2.267h1.717v.816h-1.717v4.037c0 .606.061 1.164.865 1.164.344 0 .53-.062.913-.211v.866c-.408.162-.84.21-1.025.21-1.568 0-1.84-1.076-1.84-1.893v-4.173H78.17v-.816h1.099V8.41zM86.956 25.128h62.473V0H86.956z" mask="url(#b)"/>
        <path fill="#5B7289" d="M136.224 8.2c.062.718-.536 1.767-.92 1.986l-.268-.282c.35-.517.28-1.703-.065-1.882l.037-.089c.282 0 .768.101.947.152.17.052.177.066.269.116M141.547 14.486c0 1.382-1.011 2.38-2.732 2.38-.675 0-1.595-.141-2.006-.345 0 0-.036-.058-.036-.293 0-.59.05-1.556.062-1.729h.358c.033.178.06.426.142.704.224.782.842 1.076 1.594 1.076.76 0 1.406-.411 1.406-1.258 0-.643-.398-.966-1.163-1.622l-.447-.385c-.962-.826-1.723-1.542-1.723-2.625 0-1.21.964-2.162 2.578-2.162.664 0 1.364.13 1.622.192.097.023.153.042.153.116 0 .137-.05.827-.05 1.662h-.319c-.223-.811-.376-1.396-1.52-1.396-.91 0-1.278.617-1.278 1.178 0 .532.406.955 1.2 1.614l.447.371c1.157.96 1.712 1.472 1.712 2.522M125.434 8.702c-.483 0-.858.14-1.278.65-.35.432-1.645 2.945-1.939 3.624-.108.247-.167.263-.167.768v1.025c0 .17-.006.561.027 1.01.02.31.125.546.447.589.149.02.489.038.638.038v.334h-3.588v-.334c.15 0 .554-.018.651-.038.113-.023.36-.07.396-.59.032-.448.04-.84.04-1.01v-1.087c0-.373-.024-.391-.257-.82-.16-.293-1.414-2.696-1.786-3.253-.438-.647-.697-.906-1.404-.906v-.32h2.31s.04.141.357.803c.15.322 1.527 2.955 1.697 3.254l2.12-4.057h1.736v.32zM107.548 14.896s-.262 1.265-.345 1.573c-.064.236-.102.27-.102.27h-5.72v-.333c.16 0 .515-.032.612-.052.213-.042.306-.201.344-.512.048-.372.052-1.228.052-2.213v-2.087c0-1.627-.004-1.857-.026-2.201-.02-.367-.094-.536-.447-.616a4.285 4.285 0 0 0-.511-.024v-.318h2.389v.932s-.012.572-.012 2.177v2.096c0 1.468-.005 2.09.216 2.284.18.154.61.215 1.429.215.747 0 .998-.03 1.252-.283.215-.215.313-.44.434-.908h.435zM100.615 14.896s-.26 1.265-.345 1.573c-.064.236-.101.27-.101.27h-5.721v-.333c.16 0 .515-.032.612-.052.214-.042.306-.201.346-.512.046-.372.05-1.228.05-2.213v-2.087c0-1.627-.004-1.857-.026-2.201-.02-.367-.094-.536-.445-.616a4.322 4.322 0 0 0-.512-.024v-.318h2.388v.932s-.014.572-.014 2.177v2.096c0 1.468-.002 2.09.218 2.284.18.154.61.215 1.43.215.747 0 .998-.03 1.252-.283.214-.215.313-.44.433-.908h.435zM133.082 12.684c0-1.396-.557-2.256-1.01-2.692-.982-.942-2.152-1.06-2.974-1.06-.21 0-.603.037-.688.075-.094.046-.124.103-.126.217-.01.36-.014 1.282-.014 2.113v1.574c0 1.117.016 1.925.024 2.125.012.266.034.688.116.806.14.202.534.423 1.365.423 1.074 0 1.754-.208 2.387-.755.69-.598.92-1.742.92-2.826m1.48-.313c0 1.474-.564 2.578-1.161 3.19-.493.502-1.496 1.178-3.473 1.178h-4.137v-.333c.715-.021.982-.003 1.048-.602.052-.456.04-1.688.04-2.24v-2.022c0-1.628-.006-1.857-.026-2.201-.024-.366-.108-.536-.461-.616a4.301 4.301 0 0 0-.525-.024v-.319h3.371c1.336 0 3.113-.006 4.279 1.214.533.56 1.046 1.452 1.046 2.775M115.259 12.743c0-2.387-1.233-3.889-2.91-3.889-1.245 0-2.453.947-2.453 3.38 0 2.06 1.04 3.98 2.911 3.98 1.536 0 2.452-1.195 2.452-3.471m1.596-.383c0 2.498-1.626 4.52-4.33 4.52-2.99 0-4.187-2.336-4.187-4.328 0-2.024 1.257-4.325 4.29-4.325 2.671 0 4.227 1.683 4.227 4.133" mask="url(#b)"/>
    </g>
</svg>
