<svg xmlns="http://www.w3.org/2000/svg" width="58" height="27" viewBox="0 0 58 27">
    <g fill="none" fill-rule="evenodd">
        <path fill="#31CFDA" d="M5.46 2.325l1.403 4.49H2.48l2.979-4.49zm19.29 4.49h-4.597l1.449-4.746 3.148 4.745zm-5.04 1.451h5.814L15.427 22.303 19.71 8.266zm-12.394 0l4.309 13.788L1.707 8.266h5.61zm.726-2.546L6.708 1.452h5.25L8.041 5.72zm10.913.049l-4.056-4.317h5.373l-1.317 4.317zM9.009 6.814l4.415-4.812 4.521 4.812H9.01zm9.184 1.452L13.57 23.412 8.837 8.266h9.356zm8.917-.52L22.187.324A.726.726 0 0 0 21.582 0H5.649a.726.726 0 0 0-.605.325L.121 7.745a.726.726 0 0 0 .016.826l12.889 17.917a.727.727 0 0 0 1.179 0l12.89-17.917a.726.726 0 0 0 .015-.826z"/>
        <path fill="#317BDA" d="M35.46 2.325l1.403 4.49H32.48l2.979-4.49zm19.29 4.49h-4.597l1.449-4.746 3.148 4.745zm-5.04 1.451h5.814L45.427 22.303 49.71 8.266zm-12.394 0l4.309 13.788-9.918-13.788h5.61zm.726-2.546l-1.334-4.268h5.25L38.041 5.72zm10.913.049l-4.056-4.317h5.373l-1.317 4.317zm-9.946 1.045l4.415-4.812 4.521 4.812H39.01zm9.184 1.452L43.57 23.412 38.837 8.266h9.356zm8.917-.52L52.187.324A.726.726 0 0 0 51.582 0H35.649a.726.726 0 0 0-.605.325l-4.923 7.42a.726.726 0 0 0 .016.826l12.889 17.917a.727.727 0 0 0 1.179 0l12.89-17.917a.726.726 0 0 0 .015-.826z"/>
    </g>
</svg>
