<svg xmlns="http://www.w3.org/2000/svg" width="38" height="35" viewBox="0 0 38 35">
    <defs>
        <linearGradient id="a" x1="4.391%" y1="0%" y2="100%">
            <stop offset="0%" stop-color="#13D6DE"/>
            <stop offset="100%" stop-color="#317BDA"/>
        </linearGradient>
    </defs>
    <path fill="url(#a)" fill-rule="evenodd" d="M133.898 260.759l-2.27-.609a2.196 2.196 0 0 1-1.553-2.689l3.694-13.784a2.196 2.196 0 0 1 2.689-1.553l22.46 6.018h-8.482l-9.245-2.477a3.293 3.293 0 0 1-4.033 2.33l-.04.147h-.22a3 3 0 0 0-3 3v9.617zm2.824-20.985l3.387-4.838a2.196 2.196 0 0 1 3.058-.54l16.434 11.508-6.201-1.662-6.996-4.898a3.293 3.293 0 0 1-4.587.808l-.581.831-4.514-1.21zm29.011 10.564c1.212 0 2.196.984 2.196 2.195v14.271a2.196 2.196 0 0 1-2.196 2.196H138.29a2.196 2.196 0 0 1-2.195-2.196v-14.27c0-1.212.983-2.196 2.195-2.196h27.444zm-2.195 13.173v-7.684a3.293 3.293 0 0 1-3.293-3.294h-16.467a3.293 3.293 0 0 1-3.293 3.294v7.684a3.293 3.293 0 0 1 3.293 3.293h16.467a3.293 3.293 0 0 1 3.293-3.293zM152 257a3 3 0 1 1 0 6 3 3 0 0 1 0-6z" transform="translate(-130 -234)"/>
</svg>
