<svg xmlns="http://www.w3.org/2000/svg" width="45" height="45" viewBox="0 0 45 45">
    <path fill="#FFF" fill-rule="nonzero" d="M4.919 35.53A17.852 17.852 0 0 0 0 45a18.46 18.46 0 0 0 9.523-4.97l.89-.89-4.605-4.5-.89.89zm2.25-3.873c-.105.628.052 1.308.575 1.779l3.925 3.872c.47.419 1.15.628 1.779.471.994-.314 1.988-.628 2.982-1.046l.053 6.854s9.837-9.261 9.941-9.89c.105-.627.21-2.25.21-2.773a68.88 68.88 0 0 0 7.535-6.54C44.477 14.128 45 0 45 0S30.767.68 20.512 10.988a69.426 69.426 0 0 0-6.541 7.588c-.523 0-2.145.104-2.826.209-.785.157-9.89 9.994-9.89 9.994l6.855-.052c-.366.942-.68 1.936-.941 2.93zM27.68 17.372a4.108 4.108 0 0 1 0-5.913c1.622-1.622 4.29-1.622 5.913 0 1.622 1.622 1.622 4.291 0 5.913-1.622 1.622-4.29 1.622-5.913 0z"/>
</svg>
