<svg xmlns="http://www.w3.org/2000/svg" width="35" height="35" viewBox="0 0 35 35">
    <defs>
        <linearGradient id="a" x1="4.391%" y1="0%" y2="100%">
            <stop offset="0%" stop-color="#13D6DE"/>
            <stop offset="100%" stop-color="#317BDA"/>
        </linearGradient>
    </defs>
    <path fill="url(#a)" fill-rule="evenodd" d="M32.813 137.185c.524.09 1.02.347 1.486.769.467.421.701.94.701 1.555v2.187c0 .593-.234 1.071-.7 1.436a4.08 4.08 0 0 1-1.487.752l-2.837.683c-.114.342-.234.667-.36.975-.125.307-.267.609-.427.905l1.504 2.53c.297.455.479.98.547 1.572.069.592-.114 1.105-.547 1.538l-1.538 1.538a1.975 1.975 0 0 1-1.572.598c-.615-.034-1.15-.2-1.606-.495l-2.461-1.573c-.32.16-.638.308-.957.445-.32.136-.661.262-1.026.376l-.615 2.837c-.091.524-.348 1.02-.77 1.486-.42.467-.939.701-1.554.701h-2.188a1.734 1.734 0 0 1-1.435-.7 4.08 4.08 0 0 1-.752-1.488l-.684-2.802c-.364-.114-.729-.245-1.094-.393a11.238 11.238 0 0 1-1.06-.496l-2.528 1.607c-.433.296-.963.461-1.59.495-.626.034-1.145-.165-1.555-.598l-1.572-1.538a1.832 1.832 0 0 1-.513-1.538c.068-.593.24-1.117.513-1.572l1.606-2.666a18.825 18.825 0 0 1-.393-.838 7.067 7.067 0 0 1-.325-.906l-2.837-.683a4.08 4.08 0 0 1-1.486-.752A1.734 1.734 0 0 1 0 141.696v-2.187c0-.615.234-1.134.7-1.555.468-.422.963-.678 1.488-.77l2.802-.615c.091-.319.205-.638.342-.957.137-.319.273-.626.41-.923l-1.606-2.666a3.882 3.882 0 0 1-.513-1.572 1.832 1.832 0 0 1 .513-1.538l1.572-1.538c.41-.433.929-.632 1.555-.598.627.034 1.157.2 1.59.495l2.529 1.607a12.426 12.426 0 0 1 2.119-.889l.718-2.802c.114-.525.353-1.02.718-1.487.364-.467.854-.701 1.47-.701h2.187c.615 0 1.128.234 1.538.7.41.468.672.952.786 1.453l.615 2.871a15.243 15.243 0 0 1 1.983.82l2.46-1.572c.456-.296.992-.461 1.607-.495a1.975 1.975 0 0 1 1.572.598l1.538 1.538c.433.433.616.946.547 1.538a3.598 3.598 0 0 1-.547 1.572l-1.504 2.53c.16.319.314.643.462.974.148.33.268.678.359 1.042l2.802.616zm0 4.34l.034-1.948a1.202 1.202 0 0 0-.171-.12.912.912 0 0 0-.308-.12l-4.067-.922-.376-1.196a5.772 5.772 0 0 0-.274-.82 9.587 9.587 0 0 0-.41-.855l-.547-1.094 2.154-3.589c.068-.09.12-.182.153-.273a.655.655 0 0 0 .052-.205l-1.436-1.402a.812.812 0 0 0-.444.137l-3.52 2.256-1.129-.581a26.843 26.843 0 0 0-.82-.393 4.443 4.443 0 0 0-.854-.29l-1.197-.41-.888-4.137a1.006 1.006 0 0 0-.103-.256l-.068-.12h-2.017a.795.795 0 0 0-.137.206c-.045.09-.08.205-.102.341l-.991 3.965-1.162.376a9.3 9.3 0 0 0-.89.325c-.295.125-.592.268-.888.427l-1.128.581-3.657-2.324-.17-.085a1.566 1.566 0 0 0-.206-.086l-1.435 1.436c0 .068.017.148.05.239.035.091.086.194.155.308l2.221 3.69-.547 1.06c-.136.297-.256.57-.358.82-.103.251-.188.502-.257.753l-.376 1.196-4.136.923a1.252 1.252 0 0 0-.222.102.464.464 0 0 1-.154.069v2.016a.573.573 0 0 0 .206.12c.09.034.205.063.341.085l4 1.026.375 1.162c.069.228.154.461.257.7.102.24.222.485.359.736l.512 1.06-2.221 3.725c-.069.09-.12.182-.154.273a.696.696 0 0 0-.051.24l1.435 1.4a.567.567 0 0 0 .222-.05c.08-.035.154-.075.222-.12l3.59-2.29 1.127.58c.296.16.593.303.889.428a9.3 9.3 0 0 0 .889.325l1.162.376 1.025 4.033c.023.114.051.21.086.29.034.08.074.143.12.189h1.982c.022-.023.062-.08.12-.171a.953.953 0 0 0 .119-.274l.889-4.067 1.196-.41a13.106 13.106 0 0 0 1.64-.684l1.128-.581 3.59 2.29.17.085c.068.035.137.063.205.086l1.436-1.436a.696.696 0 0 0-.052-.239 1.927 1.927 0 0 0-.153-.308l-2.154-3.554.547-1.094c.137-.25.257-.507.36-.769.102-.262.198-.53.29-.803l.376-1.128 4.067-1.026c.114-.022.21-.05.29-.085a.594.594 0 0 0 .188-.12zM17.5 133.937c1.823 0 3.378.639 4.666 1.915 1.287 1.276 1.93 2.825 1.93 4.648 0 1.823-.643 3.372-1.93 4.648-1.288 1.276-2.843 1.915-4.666 1.915-1.8 0-3.344-.639-4.631-1.915-1.288-1.276-1.931-2.825-1.931-4.648 0-1.823.643-3.372 1.93-4.648 1.288-1.276 2.832-1.915 4.632-1.915zm0 10.938c1.208 0 2.239-.427 3.093-1.282.855-.854 1.282-1.885 1.282-3.093s-.427-2.239-1.282-3.093c-.854-.855-1.885-1.282-3.093-1.282s-2.239.427-3.093 1.282c-.855.854-1.282 1.885-1.282 3.093s.427 2.239 1.282 3.093c.854.855 1.885 1.282 3.093 1.282z" transform="translate(0 -123)"/>
</svg>
