<svg xmlns="http://www.w3.org/2000/svg" width="62" height="70" viewBox="0 0 62 70">
    <defs>
        <linearGradient id="a" x1="4.391%" y1="0%" y2="100%">
            <stop offset="0%" stop-color="#13D6DE"/>
            <stop offset="100%" stop-color="#317BDA"/>
        </linearGradient>
    </defs>
    <path fill="url(#a)" fill-rule="evenodd" d="M92.094 101.881a.412.412 0 0 1-.412.412h-9.563a.411.411 0 0 1-.412-.412V73.56c0-.227.184-.412.412-.412h9.563c.227 0 .412.185.412.412v28.322zm-.412-31.441c1.72 0 3.12 1.4 3.12 3.119v28.322c0 1.72-1.4 3.119-3.12 3.119h-9.563c-1.72 0-3.119-1.4-3.119-3.119V73.56c0-1.72 1.399-3.12 3.119-3.12h9.563zm13.175-14.964l-2.181-1.195-2.183 1.195a.89.89 0 0 1-.97-.073.972.972 0 0 1-.366-.94l.417-2.53-1.766-1.794a.981.981 0 0 1-.232-.986c.11-.349.395-.599.744-.651l2.439-.369 1.091-2.304a.912.912 0 0 1 .826-.535c.355 0 .671.205.827.536l1.09 2.303 2.44.37a.926.926 0 0 1 .744.65.98.98 0 0 1-.232.985l-1.766 1.794.417 2.534a.973.973 0 0 1-.367.938.884.884 0 0 1-.972.072zm3.981-13.838l-1.765-1.793a.982.982 0 0 1-.233-.986c.11-.35.396-.599.745-.651l2.439-.369 1.091-2.305a.914.914 0 0 1 .827-.534c.353 0 .67.205.826.534l1.09 2.305 2.44.37a.926.926 0 0 1 .744.651c.11.35.02.727-.232.985l-1.767 1.793.417 2.533a.973.973 0 0 1-.368.94.882.882 0 0 1-.97.07l-2.181-1.194-2.182 1.195a.888.888 0 0 1-.97-.072.972.972 0 0 1-.367-.94l.416-2.532zm13.383 7.206l-1.766-1.793a.982.982 0 0 1-.232-.986c.11-.35.395-.599.744-.651l2.439-.369 1.091-2.305a.914.914 0 0 1 .827-.534c.353 0 .67.205.826.534l1.09 2.305 2.441.37a.926.926 0 0 1 .743.651c.11.35.02.727-.232.985l-1.766 1.793.416 2.533a.973.973 0 0 1-.368.94.893.893 0 0 1-.539.183.89.89 0 0 1-.43-.113l-2.182-1.194-2.183 1.195a.884.884 0 0 1-.969-.072.973.973 0 0 1-.367-.94l.417-2.532zM140.656 75.7c-.195 2.206-1.368 3.585-2.625 4.407 1.487 1.372 2.052 3.16 1.535 5.088-.432 1.611-1.343 2.518-2.44 3.046.75 1.017 1.202 2.405.755 4.163-.45 1.767-1.575 2.8-2.767 3.367.73 1.106 1.102 2.596.384 4.404-1.014 2.546-3.169 4.018-5.914 4.036-.84.006-2.879 0-5.436-.006-5.383-.011-13.52-.03-17.024.035-.17.002-.338.004-.505.004-3.561 0-6.605-.74-9.292-2.26a1.353 1.353 0 1 1 1.332-2.355c2.38 1.345 5.129 1.988 8.413 1.904 3.534-.065 11.364-.05 17.082-.035 2.547.008 4.578.012 5.413.006 1.138-.008 2.654-.418 3.415-2.33.748-1.88-1.072-2.834-1.282-2.937a1.354 1.354 0 0 1-.718-1.554c.16-.622.742-1.026 1.378-1.014.234.012 2.398.026 2.898-1.933.508-1.994-1.358-2.795-1.573-2.88a1.353 1.353 0 0 1 .35-2.605c2.156-.235 2.642-.733 2.917-1.758.476-1.775-1.057-2.844-2.427-3.429a1.353 1.353 0 0 1 .4-2.592c.11-.012 2.799-.347 3.035-3.012.09-1.007-.145-1.8-.716-2.424-.846-.925-2.215-1.224-2.745-1.224h-4.65c-4.134 0-8.268 0-12.402-.003a1.352 1.352 0 0 1-1.23-1.919c.687-1.492 1.664-5.96.462-12.182-.374-1.936-1.394-3.132-2.593-3.151-.903.016-1.797.736-1.878 1.511-.172 1.663-.587 4.089-.987 5.768-1.341 5.619-8.334 12.703-12.558 15.112a1.353 1.353 0 1 1-1.34-2.352c3.718-2.12 10.108-8.54 11.264-13.389.377-1.578.767-3.857.928-5.417.222-2.134 2.251-3.9 4.523-3.94l.084-.001c2.544 0 4.586 2.089 5.215 5.345.971 5.028.682 9.2-.005 11.909l10.517.002h4.65c1.046 0 3.223.443 4.742 2.103 1.082 1.182 1.57 2.735 1.415 4.492zM86.888 100.57a2.968 2.968 0 0 0 0-5.934 2.967 2.967 0 1 0 0 5.934z" transform="translate(-78.667 -35)"/>
</svg>
