<svg xmlns="http://www.w3.org/2000/svg" width="61" height="50" viewBox="0 0 61 50">
    <defs>
        <linearGradient id="a" x1="4.391%" y1="0%" y2="100%">
            <stop offset="0%" stop-color="#13D6DE"/>
            <stop offset="100%" stop-color="#317BDA"/>
        </linearGradient>
    </defs>
    <path fill="url(#a)" fill-rule="nonzero" d="M149.622 85.34c.674 0 1.214.54 1.226 1.216v.27c0 .173.147.32.319.32h7.745a.325.325 0 0 0 .319-.32v-.27c0-.676.54-1.217 1.213-1.217h14.107c.674 0 1.213.541 1.213 1.217a1.21 1.21 0 0 1-1.213 1.217h-13.077a2.74 2.74 0 0 1-2.574 1.807h-7.746a2.74 2.74 0 0 1-2.573-1.807h-13.065a1.21 1.21 0 0 1-1.214-1.217c0-.676.54-1.217 1.214-1.217h14.106zm34.244 0c.674 0 1.213.54 1.213 1.216v2.888c0 3.06-2.488 5.556-5.54 5.556h-49c-3.051 0-5.539-2.495-5.539-5.556v-2.888c0-.676.54-1.217 1.213-1.217h3.175V57.303c0-.676.539-1.216 1.213-1.216s1.213.54 1.213 1.216v29.253a1.21 1.21 0 0 1-1.213 1.217h-3.174v1.671a3.122 3.122 0 0 0 3.113 3.122h49a3.122 3.122 0 0 0 3.112-3.122v-1.671h-3.174a1.22 1.22 0 0 1-1.226-1.217V57.303c0-.676.54-1.216 1.214-1.216.674 0 1.213.54 1.213 1.216V85.34h3.187zM170.016 45c2.452 0 4.45 2.003 4.45 4.462V67.21c0 2.458-1.998 4.462-4.45 4.462h-19.928l-5.613 6.514a1.757 1.757 0 0 1-1.348.627 1.797 1.797 0 0 1-1.802-1.795v-5.346h-1.262c-2.452 0-4.45-2.004-4.45-4.462V49.462c0-2.459 1.998-4.462 4.45-4.462h29.953zm-10.258 8.555a1.214 1.214 0 1 1 1.716 1.72l-7.868 7.842a1.247 1.247 0 0 1-.858.356c-.307 0-.625-.122-.858-.356l-3.285-3.319a1.212 1.212 0 0 1 0-1.72 1.203 1.203 0 0 1 1.716 0l2.439 2.458 6.998-6.981zm12.28 13.655h-.012V49.462a2.027 2.027 0 0 0-2.022-2.028H140.05c-1.115 0-2.022.91-2.022 2.028V67.21c0 1.118.907 2.028 2.022 2.028h2.476c.674 0 1.213.54 1.213 1.217v4.842l4.866-5.641a1.2 1.2 0 0 1 .92-.418h20.491c1.116 0 2.023-.91 2.023-2.028z" transform="translate(-125 -45)"/>
</svg>
