<?xml version="1.0" encoding="UTF-8"?>
<svg width="651px" height="90px" viewBox="0 0 651 90" version="1.1" xmlns="http://www.w3.org/2000/svg" xmlns:xlink="http://www.w3.org/1999/xlink">
    <!-- Generator: Sketch 46.2 (44496) - http://www.bohemiancoding.com/sketch -->
    <title>Group Copy</title>
    <desc>Created with Sketch.</desc>
    <defs>
        <radialGradient cx="-6.12275634%" cy="-8.5934273%" fx="-6.12275634%" fy="-8.5934273%" r="234.411921%" gradientTransform="translate(-0.061228,-0.085934),scale(0.059839,1.000000),rotate(5.330918),scale(1.000000,1.490514),translate(0.061228,0.085934)" id="radialGradient-1">
            <stop stop-color="#317BDA" offset="0%"></stop>
            <stop stop-color="#43C8CD" offset="100%"></stop>
        </radialGradient>
    </defs>
    <g id="Footer-pages" stroke="none" stroke-width="1" fill="none" fill-rule="evenodd">
        <g id="Terms-&amp;-Policies/3_conflict-of-interest" transform="translate(-401.000000, -2383.000000)">
            <g id="Group-Copy" transform="translate(402.000000, 2383.000000)">
                <g id="value_chain">
                    <g>
                        <path d="M-2.84217094e-14,2.99964271 C-2.84217094e-14,1.34298579 1.34147544,0 3.00198884,0 L61.938865,0 C63.5968177,0 65.5556288,1.20029528 66.3084039,2.67002395 L74.4354101,18.5373052 C74.6857541,19.0260803 74.6809231,19.8279733 74.4354101,20.3073163 L66.3084039,36.1745976 C65.5531269,37.6492111 63.5993784,38.8446215 61.938865,38.8446215 L3.00198884,38.8446215 C1.34403618,38.8446215 -2.84217094e-14,37.5075017 -2.84217094e-14,35.8449788 L-2.84217094e-14,2.99964271 Z M73.0639215,2.63959239 C72.2686315,1.18178577 72.9653971,0 74.6259105,0 L133.562787,0 C135.220739,0 137.179551,1.20029528 137.932326,2.67002395 L146.059332,18.5373052 C146.309676,19.0260803 146.304845,19.8279733 146.059332,20.3073163 L137.932326,36.1745976 C137.177049,37.6492111 135.2233,38.8446215 133.562787,38.8446215 L74.6259105,38.8446215 C72.9679579,38.8446215 72.2707754,37.658906 73.0639215,36.2050291 L81.7367391,20.3073163 C82.0033849,19.8185412 82.0078923,19.0343427 81.7367391,18.5373052 L73.0639215,2.63959239 Z M145.148269,2.63959239 C144.352979,1.18178577 145.049745,0 146.710258,0 L205.647134,0 C207.305087,0 209.263898,1.20029528 210.016673,2.67002395 L218.14368,18.5373052 C218.394024,19.0260803 218.389193,19.8279733 218.14368,20.3073163 L210.016673,36.1745976 C209.261396,37.6492111 207.307648,38.8446215 205.647134,38.8446215 L146.710258,38.8446215 C145.052306,38.8446215 144.355123,37.658906 145.148269,36.2050291 L153.821087,20.3073163 C154.087733,19.8185412 154.09224,19.0343427 153.821087,18.5373052 L145.148269,2.63959239 Z M216.583209,2.63959239 C215.787919,1.18178577 216.484684,0 218.145198,0 L277.082074,0 C278.740026,0 280.698838,1.20029528 281.451613,2.67002395 L289.578619,18.5373052 C289.828963,19.0260803 289.824132,19.8279733 289.578619,20.3073163 L281.451613,36.1745976 C280.696336,37.6492111 278.742587,38.8446215 277.082074,38.8446215 L218.145198,38.8446215 C216.487245,38.8446215 215.790062,37.658906 216.583209,36.2050291 L225.256026,20.3073163 C225.522672,19.8185412 225.527179,19.0343427 225.256026,18.5373052 L216.583209,2.63959239 Z M288.667556,2.63959239 C287.872266,1.18178577 288.569032,0 290.229545,0 L349.166422,0 C350.824374,0 352.783185,1.20029528 353.53596,2.67002395 L361.662967,18.5373052 C361.913311,19.0260803 361.90848,19.8279733 361.662967,20.3073163 L353.53596,36.1745976 C352.780683,37.6492111 350.826935,38.8446215 349.166422,38.8446215 L290.229545,38.8446215 C288.571593,38.8446215 287.87441,37.658906 288.667556,36.2050291 L297.340374,20.3073163 C297.60702,19.8185412 297.611527,19.0343427 297.340374,18.5373052 L288.667556,2.63959239 Z M360.102496,2.63959239 C359.307206,1.18178577 360.003971,0 361.664485,0 L420.601361,0 C422.259313,0 424.218125,1.20029528 424.9709,2.67002395 L433.097906,18.5373052 C433.34825,19.0260803 433.343419,19.8279733 433.097906,20.3073163 L424.9709,36.1745976 C424.215623,37.6492111 422.261874,38.8446215 420.601361,38.8446215 L361.664485,38.8446215 C360.006532,38.8446215 359.309349,37.658906 360.102496,36.2050291 L368.775313,20.3073163 C369.041959,19.8185412 369.046466,19.0343427 368.775313,18.5373052 L360.102496,2.63959239 Z M432.186843,2.63959239 C431.391553,1.18178577 432.088319,0 433.748832,0 L492.685709,0 C494.343661,0 496.302472,1.20029528 497.055247,2.67002395 L505.182254,18.5373052 C505.432598,19.0260803 505.427767,19.8279733 505.182254,20.3073163 L497.055247,36.1745976 C496.29997,37.6492111 494.346222,38.8446215 492.685709,38.8446215 L433.748832,38.8446215 C432.09088,38.8446215 431.393697,37.658906 432.186843,36.2050291 L440.859661,20.3073163 C441.126307,19.8185412 441.130814,19.0343427 440.859661,18.5373052 L432.186843,2.63959239 Z M503.621783,2.63959239 C502.826493,1.18178577 503.523258,0 505.183772,0 L564.120648,0 C565.778601,0 567.737412,1.20029528 568.490187,2.67002395 L576.617193,18.5373052 C576.867537,19.0260803 576.862706,19.8279733 576.617193,20.3073163 L568.490187,36.1745976 C567.73491,37.6492111 565.781161,38.8446215 564.120648,38.8446215 L505.183772,38.8446215 C503.525819,38.8446215 502.828637,37.658906 503.621783,36.2050291 L512.2946,20.3073163 C512.561246,19.8185412 512.565753,19.0343427 512.2946,18.5373052 L503.621783,2.63959239 Z M575.706259,2.63959239 C574.910969,1.18178577 575.613904,0 577.271427,0 L646.149789,0 C647.809497,0 649.154957,1.3371198 649.154957,2.99964271 L649.154957,35.8449788 C649.154957,37.5016357 647.807313,38.8446215 646.149789,38.8446215 L577.271427,38.8446215 C575.611719,38.8446215 574.913113,37.658906 575.706259,36.2050291 L584.379077,20.3073163 C584.645722,19.8185412 584.65023,19.0343427 584.379077,18.5373052 L575.706259,2.63959239 Z" id="Combined-Shape" fill="url(#radialGradient-1)"></path>
                        <polyline id="Path-5" stroke="#317BDA" stroke-width="1.5" stroke-linecap="round" stroke-linejoin="round" points="72.2222222 49 72.2222222 55.5731145 534.627314 55.5731145 534.627314 49"></polyline>
                        <polyline id="Path-5-Copy" stroke="#31CFDA" stroke-width="1.5" stroke-linecap="round" stroke-linejoin="round" points="539.660494 49 539.660494 55.5731145 648.986964 55.5731145 648.986964 49"></polyline>
                        <polyline id="Path-5-Copy" stroke="#31CFDA" stroke-width="1.5" stroke-linecap="round" stroke-linejoin="round" points="0 49 0 55.5731145 65.8160984 55.5731145 65.8160984 49"></polyline>
                        <text id="The-insurer" font-family="Roboto-Bold, Roboto" font-size="10" font-weight="bold" letter-spacing="0.555555522" fill="#31CFDA">
                            <tspan x="9.03088006" y="81">The insurer</tspan>
                        </text>
                        <g id="qover-h_white" transform="translate(267.933951, 68.000000)" fill-rule="nonzero" fill="#317BDA">
                            <path d="M33.40704,14.1 C32.8430811,14.3165132 32.2450995,14.4302042 31.64128,14.4357143 C30.2032106,14.4367984 28.8802438,13.6470513 28.1952,12.3785714 C27.8391657,11.721487 27.6577178,10.9835261 27.66832,10.2357143 C27.6486762,9.44534101 27.8248185,8.6624271 28.18096,7.95714286 C28.4997703,7.33227346 28.9950665,6.81551181 29.60496,6.47142857 C30.2785557,6.11747393 31.030576,5.94053816 31.7908,5.95714286 L35.43624,5.95714286 L35.43624,17.2142857 L33.37144,17.2142857 L33.40704,14.1 Z M32.31768,7.67142857 C30.63736,7.67142857 29.7972,8.56190476 29.7972,10.3428571 C29.7672174,10.9958431 29.9890477,11.6353327 30.41664,12.1285714 C30.8372298,12.6009225 31.4445648,12.8624181 32.0756,12.8428571 C32.5416591,12.8401345 32.9995381,12.7197703 33.40704,12.4928571 L33.40704,7.65714286 L32.31768,7.67142857 Z" id="Shape"></path>
                            <path d="M41.46688,5.82142857 C42.2457358,5.81105222 43.0146385,5.99775352 43.70256,6.36428571 C44.3518803,6.70237149 44.8906557,7.22056207 45.25472,7.85714286 C45.6271054,8.53453332 45.8161251,9.29796491 45.80296,10.0714286 C45.8207155,10.8564326 45.6394202,11.6330978 45.27608,12.3285714 C44.9194499,12.9798794 44.3796361,13.5114894 43.72392,13.8571429 C43.030954,14.2321586 42.2541844,14.4239017 41.46688,14.4142857 C40.6817258,14.4249019 39.9070093,14.2330605 39.21696,13.8571429 C38.5672527,13.5082301 38.0328649,12.9770906 37.67904,12.3285714 C37.3156998,11.6330978 37.1344045,10.8564326 37.15216,10.0714286 C37.1481684,9.29452542 37.3496299,8.53045754 37.736,7.85714286 C38.1004515,7.21726187 38.6387758,6.69455055 39.28816,6.35 C39.9597329,5.99597909 40.708269,5.81437943 41.46688,5.82142857 L41.46688,5.82142857 Z M39.33088,10.1071429 C39.2871625,10.8064255 39.4776211,11.5003113 39.872,12.0785714 C40.2425182,12.55211 40.8174857,12.8179226 41.41704,12.7928571 C42.0311503,12.8201347 42.6221571,12.5554454 43.01192,12.0785714 C43.4365683,11.4887507 43.6430228,10.7688917 43.59576,10.0428571 C43.641172,9.34357782 43.4338996,8.65129709 43.01192,8.09285714 C42.6209626,7.62162922 42.0349497,7.35799954 41.42416,7.37857143 C40.8277757,7.35931094 40.257457,7.62419501 39.88624,8.09285714 C39.4643261,8.66959169 39.2645476,9.37994045 39.32376,10.0928571 L39.33088,10.1071429 Z" id="Shape"></path>
                            <polygon id="Shape" points="48.68656 5.97857143 50.552 10.7857143 52.39608 5.97857143 54.60328 5.97857143 51.04328 14.4357143 50.06784 14.4357143 46.458 5.97857143"></polygon>
                            <path d="M59.23128,5.82142857 C60.2649366,5.78369889 61.2608224,6.21375031 61.944,6.99285714 C62.6644517,7.91367559 63.0240815,9.06716909 62.95504,10.2357143 L62.95504,10.5642857 L57.41568,10.5642857 C57.4580245,11.2122107 57.7398475,11.8209668 58.206,12.2714286 C58.7181016,12.6840569 59.3663208,12.8880726 60.0216,12.8428571 C60.5090151,12.8425711 60.9920456,12.7505007 61.4456,12.5714286 C61.9546227,12.3624808 62.4335282,12.0862261 62.8696,11.75 L62.8696,13.3785714 C61.8943928,14.0809888 60.7160934,14.4423897 59.51608,14.4071429 C58.3818763,14.4519148 57.2794549,14.0255515 56.46872,13.2285714 C55.6605454,12.3886801 55.2330197,11.2518416 55.2868,10.0857143 C55.2397023,8.95254691 55.6298763,7.84478424 56.37616,6.99285714 C57.1104619,6.20106516 58.1543514,5.77276722 59.23128,5.82142857 Z M61.03976,9.28571429 C61.0204826,8.76655519 60.8386165,8.26669242 60.52,7.85714286 C60.2176121,7.51123188 59.7748641,7.32199996 59.31672,7.34285714 C58.8474281,7.32090146 58.3904053,7.49704451 58.05648,7.82857143 C57.7070509,8.22720004 57.4948473,8.72810569 57.45128,9.25714286 L61.03976,9.28571429 Z" id="Shape"></path>
                            <path d="M69.12096,5.82142857 C69.4026516,5.82267696 69.6803142,5.88865025 69.93264,6.01428571 C70.270054,6.19278735 70.5834742,6.41360582 70.86536,6.67142857 L70.15336,8.57857143 C69.7621437,8.20074024 69.2653875,7.95156481 68.72936,7.86428571 C68.3794978,7.87649478 68.0447437,8.01032127 67.7824,8.24285714 C67.4319892,8.5179945 67.1554671,8.87641782 66.97784,9.28571429 C66.7943642,9.67443964 66.6971933,10.0984902 66.69304,10.5285714 L66.69304,14.2857143 L64.62112,14.2857143 L64.62112,5.97857143 L66.69304,5.97857143 L66.69304,8.12142857 L66.69304,8.12142857 C66.9649571,7.47847148 67.3509466,6.89036788 67.83224,6.38571429 C68.1683527,6.0309244 68.6330998,5.82742781 69.12096,5.82142857 L69.12096,5.82142857 Z" id="Shape"></path>
                            <path d="M15.13712,14.4142857 C13.9196442,15.8804686 12.1157977,16.7282506 10.21364,16.7282506 C8.31148233,16.7282506 6.50763585,15.8804686 5.29016,14.4142857 L2.62728,15.9571429 C5.74817518,20.1554005 11.6700342,21.0219106 15.85624,17.8928571 L16.15528,17.6642857 L16.2336,17.7142857 L18.31976,18.9214286 C18.8919227,18.3810835 19.4094514,17.7853308 19.8648,17.1428571 L15.13712,14.4142857 Z" id="Shape"></path>
                            <path d="M3.75936,10.2285714 C3.74511933,7.63748359 5.27118658,5.28709568 7.63932965,4.25279695 C10.0074727,3.21849822 12.7621528,3.69924759 14.643002,5.47508448 C16.5238513,7.25092136 17.1690673,9.98024369 16.28344,12.4142857 L18.95344,13.9642857 C20.6407413,9.97550211 19.4329041,5.34687332 16.0138159,2.69916732 C12.5947277,0.0514613245 7.82543225,0.0514613245 4.40634407,2.69916732 C0.987255887,5.34687332 -0.220581272,9.97550211 1.46672,13.9642857 L4.14384,12.4142857 C3.89033265,11.7135873 3.76023407,10.9739953 3.75936,10.2285714 Z" id="Shape"></path>
                        </g>
                        <text id="the-broker-&amp;-introdu" font-family="Roboto-Bold, Roboto" font-size="10" font-weight="bold" letter-spacing="0.555555522" fill="#31CFDA">
                            <tspan x="563.174881" y="78">the broker &amp;</tspan>
                            <tspan x="568.090788" y="89">introducer</tspan>
                        </text>
                        <g id="text" transform="translate(10.274642, 9.711155)" font-size="9" font-family="Roboto-Medium, Roboto" fill="#FFFFFF" font-weight="400">
                            <text id="Risk-Carrying">
                                <tspan x="0.364583333" y="13">Risk Carrying</tspan>
                            </text>
                            <text id="Product-Development">
                                <tspan x="86.4813187" y="8">Product</tspan>
                                <tspan x="75.8026078" y="18">Development</tspan>
                            </text>
                            <text id="Pricing-(Actuary)">
                                <tspan x="161.374352" y="8">Pricing</tspan>
                                <tspan x="156.790856" y="18">(Actuary)</tspan>
                            </text>
                            <text id="Policy-Issuance">
                                <tspan x="233.000479" y="8">Policy</tspan>
                                <tspan x="227.131583" y="18">Issuance</tspan>
                            </text>
                            <text id="Policy-Servicing">
                                <tspan x="303.718072" y="8">Policy</tspan>
                                <tspan x="297.286675" y="18">Servicing</tspan>
                            </text>
                            <text id="Claims-Management">
                                <tspan x="375.288839" y="8">Claims</tspan>
                                <tspan x="362.590841" y="18">Management</tspan>
                            </text>
                            <text id="IT">
                                <tspan x="457.482253" y="13">IT</tspan>
                            </text>
                            <text id="Marketing-&amp;-Sales">
                                <tspan x="509.755929" y="8">Marketing</tspan>
                                <tspan x="515.097481" y="18">&amp; Sales</tspan>
                            </text>
                            <text id="Distribution">
                                <tspan x="580.976267" y="13">Distribution</tspan>
                            </text>
                        </g>
                    </g>
                </g>
            </g>
        </g>
    </g>
</svg>