<svg xmlns="http://www.w3.org/2000/svg" width="380" height="381" viewBox="0 0 380 381">
    <g fill="none" fill-rule="evenodd">
        <path fill="#317BDA" d="M367.861 125.334c-7.331-20.178-18.026-38.81-31.748-55.491L307.191 93.99c22.465 27.309 34.303 60.469 34.303 96.05 0 30.538-9.013 59.864-25.963 84.953l32.622 19.036c20.314-30.807 31.076-66.725 31.076-103.988-.068-22.264-3.902-44.057-11.368-64.707z"/>
        <path fill="#0F4583" d="M.81 194.01c.74 35.783 11.368 70.221 30.874 99.817l32.622-18.968c-16.278-24.013-25.223-52.129-25.829-81.388L.81 194.01z"/>
        <path fill="#296EC4" d="M191.028.832l.068 37.667c40.088.269 77.688 16.008 106.005 44.393a153.697 153.697 0 0 1 8.34 9.013l28.924-24.147c-3.43-4.036-6.996-7.937-10.628-11.57C288.29 20.742 241.14 1.102 191.028.833z"/>
        <path fill="#2060AF" d="M101.637 66.816c25.358-18.228 55.222-28.048 86.768-28.317L188.338.832c-39.55.336-77.15 12.578-108.898 35.581l22.197 30.403z"/>
        <path fill="#185399" d="M77.288 38.028a202.27 202.27 0 0 0-21.12 18.228C20.383 91.972.742 139.526.742 190.04v1.278l37.667-.538v-.74c0-40.492 15.74-78.563 44.393-107.15 5.18-5.178 10.83-10.021 16.681-14.46L77.288 38.027z"/>
        <path fill="#31CFDA" d="M297.505 294.836c-.471.47-.875.941-1.345 1.412-28.385 28.385-66.12 43.99-106.208 43.99-40.088 0-77.822-15.605-106.207-43.99l-1.48-1.48-35.716 20.785a186.642 186.642 0 0 0 8.677 9.282c35.985 35.985 83.876 55.828 134.726 55.828 50.85 0 98.741-19.843 134.727-55.828a216.68 216.68 0 0 0 8.542-9.08l-35.716-20.92z"/>
        <path fill="#317BDA" d="M270.398 276.54c5.65-5.38 10.83-11.3 15.336-17.757l-19.708-11.3-.807-.202-26.434-15.268c-22.802 26.972-63.092 30.402-90.065 7.6a57.964 57.964 0 0 1-7.6-7.6l-26.434 15.268c30.94 41.568 89.728 50.11 131.229 19.17 1.008-.74 1.95-1.48 2.96-2.287l.806.47 20.717 11.906zM125.918 190.579c-.201-35.38 28.318-64.236 63.698-64.437 35.38-.202 64.236 28.317 64.437 63.697.068 7.6-1.278 15.201-3.9 22.331l26.5 15.336c20.314-47.89-2.017-103.18-49.908-123.561-47.891-20.38-103.18 2.018-123.561 49.909-9.955 23.542-9.955 50.11 0 73.585l26.568-15.336c-2.488-6.794-3.766-14.125-3.834-21.524z"/>
        <g fill="#FFF">
            <path d="M44.8 273.379s.672-2.287-.404-4.238c-.605-1.076-1.614-1.681-2.757-1.076-2.49 1.346 1.48 7.668-2.758 9.955-2.287 1.278-5.112.202-6.525-2.421-1.48-2.758-.74-4.91-.74-4.91h2.624s-.471 1.95.47 3.699c.606 1.143 1.817 1.682 2.825 1.21 2.49-1.345-1.681-7.533 2.758-9.954 2.22-1.21 4.978-.538 6.525 2.354 1.681 3.094.74 5.785.74 5.785l-2.758-.404zM28.388 267.393l-1.21-2.624 12.106-5.515-2.825-6.188 2.22-1.01 3.968 8.812zM23.276 255.622l-1.01-2.69 14.731-5.65 1.01 2.69zM18.164 241.564c-1.144-3.7.336-6.188.336-6.188l2.422.672s-1.077 2.22-.337 4.574c.942 3.162 3.902 4.305 6.727 3.498 2.892-.875 4.775-3.565 3.834-6.726-.808-2.624-3.229-3.767-3.229-3.767l1.547-2.018s3.094 1.345 4.238 5.18c1.412 4.573-1.01 8.81-5.449 10.223-4.372 1.278-8.744-1.009-10.09-5.448zM15.742 231.676l-1.95-9.215 2.421-.538 1.346 6.457 4.035-.874-1.076-5.18 2.422-.537 1.076 5.179 4.17-.874-1.412-6.794 2.421-.538 2.018 9.551zM12.985 217.888l-.673-5.314c-.605-4.843 1.883-8.34 6.86-8.946 4.978-.605 8.207 2.22 8.812 6.995l.673 5.314-15.672 1.95zm12.578-6.727c-.404-3.161-2.489-4.977-6.054-4.574-3.497.404-5.112 2.69-4.708 5.852l.269 2.354 10.762-1.278-.27-2.354zM11.236 175.983c.336-4.641 4.17-7.87 8.61-7.533 4.64.336 7.936 4.103 7.6 8.744-.336 4.64-4.237 7.87-8.879 7.466-4.506-.27-7.735-4.036-7.331-8.677zm13.587 1.076c.202-2.892-2.018-5.38-5.247-5.583-3.094-.269-5.582 1.884-5.784 4.776-.202 2.892 1.883 5.381 4.977 5.583 3.296.202 5.852-1.884 6.054-4.776zM12.783 163.54l.538-2.826 10.022-4.237c1.01-.404 2.623-.875 2.623-.875v-.067s-1.48-.134-2.421-.269l-8.946-1.681.538-2.69 15.47 2.891-.538 2.825-10.022 4.238c-1.009.404-2.623.874-2.623.874v.068s1.48.134 2.421.269l8.946 1.681-.538 2.825-15.47-3.027zM22.94 147.733l1.748-6.457 2.355.672-1.75 6.457zM19.576 134.617l1.817-5.045c1.681-4.574 5.448-6.592 10.156-4.843 4.709 1.749 6.323 5.717 4.709 10.224l-1.817 5.045-14.865-5.381zm14.26-.337c1.076-3.027 0-5.582-3.296-6.793-3.296-1.21-5.784.134-6.86 3.094l-.808 2.22L33.03 136.5l.807-2.22zM25.9 118.137l4.035-8.542 2.22 1.076-2.758 5.92 3.766 1.748 2.22-4.776 2.22 1.077-2.22 4.775 3.834 1.816 2.96-6.255 2.22 1.076-4.171 8.879zM32.424 104.618l1.547-2.624 8.273 1.346c1.009.201 2.421.47 2.421.47v-.067s-.941-1.076-1.614-1.816l-5.112-6.659 1.547-2.623 14.192 6.995-1.48 2.422-7.936-3.902c-.942-.47-2.085-1.21-2.085-1.21v.067s1.076 1.21 1.681 1.95l3.969 5.314-1.278 2.153-6.525-.942c-.941-.135-2.556-.538-2.556-.538v.067s1.211.673 2.085 1.278l7.265 5.112-1.48 2.489-12.914-9.282zM57.176 88.206l-3.296 4.439 2.422 3.497-1.75 2.355-9.349-13.856 1.817-2.422 15.94 4.91-1.748 2.355-4.036-1.278zm-8.879-3.095s1.01 1.211 1.548 2.018l2.555 3.632 2.49-3.295-4.238-1.413c-.875-.336-2.355-1.009-2.355-.942zM52.468 75.224l1.883-2.153 10.762 1.615c1.076.134 2.69.672 2.69.672s-1.21-.874-1.95-1.547l-6.794-6.053 1.884-2.085 11.703 10.56-1.883 2.085-10.762-1.614c-1.076-.135-2.69-.673-2.69-.673s1.21.874 1.95 1.547l6.727 6.054-1.884 2.152-11.636-10.56zM64.911 61.839l3.969-3.633c3.565-3.295 7.87-3.295 11.233.404 3.363 3.7 2.96 8.004-.606 11.233l-3.968 3.632L64.91 61.839zm12.78 6.255c2.354-2.152 2.623-4.91.202-7.533-2.354-2.624-5.18-2.556-7.533-.471l-1.75 1.614 7.265 8.004 1.816-1.614zM93.296 39.238l4.641-2.757c4.17-2.489 8.408-1.615 10.897 2.623 2.488 4.237 1.278 8.408-2.893 10.896l-4.64 2.758-8.005-13.52zm11.3 8.745c2.758-1.615 3.565-4.305 1.749-7.332-1.816-3.027-4.574-3.565-7.264-1.95l-2.018 1.21 5.515 9.282 2.018-1.21zM108.497 30.562l2.556-1.278 7.063 14.057-2.556 1.278zM122.084 24.037c3.565-1.48 6.189-.403 6.189-.403l-.471 2.488s-2.153-.74-4.44.202c-3.295 1.345-4.103 4.305-2.96 7.063 1.279 3.161 4.306 4.304 7.063 3.161 2.22-.874 3.027-3.027 3.027-3.027l-.672-1.681-2.22.941-.942-2.287 4.641-1.883 3.162 7.668-2.287.942-.27-.673c-.134-.336-.201-.605-.201-.605h-.067s-.875 2.22-3.565 3.295c-3.834 1.615-8.34 0-10.291-4.573-1.884-4.238-.068-8.812 4.304-10.628zM132.376 20.472l2.69-.874 4.977 14.932-2.69.875zM143.608 19.665l-4.977 1.345-.605-2.354 12.78-3.363.605 2.354-4.978 1.345 3.364 12.848-2.826.672zM162.845 24.912l-5.448 1.008-.605 4.238-2.892.538 2.69-16.48 2.96-.537 8.273 14.528-2.892.539-2.086-3.834zm-4.372-8.341s-.067 1.614-.201 2.489l-.606 4.372 4.036-.74-2.152-3.901c-.404-.74-1.01-2.22-1.077-2.22zM168.16 12.333l2.824-.269 1.278 13.251 6.794-.672.269 2.421-9.619.942zM201.387 11.392l2.825.202-1.144 15.739-2.825-.202zM209.324 11.93l2.825.403 4.64 9.888c.472 1.009.943 2.623.943 2.623h.067s.067-1.547.202-2.421l1.278-9.013 2.825.403-2.22 15.605-2.825-.403-4.641-9.82c-.471-1.01-.942-2.624-.942-2.624h-.067s-.067 1.547-.202 2.421l-1.278 9.014-2.825-.404 2.22-15.672zM224.861 26.391s1.278 2.018 3.43 2.556c1.144.27 2.355-.067 2.691-1.345.673-2.758-6.726-3.968-5.583-8.677.606-2.556 3.23-3.901 6.189-3.228 3.026.672 4.17 2.69 4.17 2.69l-1.749 1.95s-1.143-1.68-3.094-2.152c-1.278-.336-2.489.202-2.758 1.278-.672 2.69 6.727 3.767 5.583 8.677-.605 2.422-2.892 4.036-6.12 3.296-3.431-.807-4.776-3.363-4.776-3.363l2.017-1.682zM240.197 18.05l2.69.875-3.16 9.619c-.673 2.018.268 3.565 2.286 4.237 2.018.673 3.7-.067 4.372-2.085l3.162-9.551 2.69.874-3.161 9.619C248 35 244.77 36.48 241.206 35.27c-3.632-1.21-5.314-4.305-4.17-7.6l3.161-9.62zM257.08 23.97l4.641 2.018c1.547.672 2.22 1.143 2.758 1.681 1.143 1.278 1.48 3.094.605 4.978-.74 1.749-2.354 2.96-4.17 2.892v.067s.135.27.202.942l.605 6.659-2.96-1.278-.47-6.659-2.489-1.076-2.354 5.38-2.623-1.143 6.255-14.461zm1.95 8.946c1.413.605 2.624.134 3.297-1.278.605-1.413.403-2.489-1.682-3.363l-2.018-.875-1.95 4.507 2.354 1.009zM272.752 44.62l-4.843-2.691-3.094 2.892-2.556-1.412 12.444-11.166 2.623 1.413-2.69 16.479-2.556-1.413.672-4.103zm1.884-9.215s-1.077 1.21-1.75 1.816l-3.228 3.026 3.632 2.018.808-4.372c.067-.941.538-2.488.538-2.488zM284.994 38.162l2.354 1.615-.134 10.896c0 1.076-.27 2.758-.27 2.758h.068s.74-1.345 1.21-2.085l5.113-7.534 2.354 1.615-8.879 13.049-2.354-1.615.134-10.896c0-1.076.27-2.758.27-2.758h-.068s-.74 1.345-1.21 2.085l-5.112 7.533-2.355-1.614 8.879-13.049zM305.51 52.96c2.959 2.489 3.093 5.381 3.093 5.381l-2.421.74s-.337-2.422-2.22-4.036c-2.556-2.152-5.65-1.48-7.533.807-1.951 2.287-2.085 5.65.47 7.735 2.086 1.75 4.776 1.413 4.776 1.413l-.134 2.556s-3.296.538-6.39-2.018c-3.7-3.094-3.969-7.937-1.01-11.502 2.893-3.565 7.803-4.036 11.368-1.076zM312.908 59.888l6.726 6.659-1.749 1.749-4.64-4.641-2.893 2.96 3.767 3.766-1.75 1.749-3.766-3.767-2.96 3.027 4.91 4.91-1.748 1.749-6.928-6.86zM334.5 84.439l1.68 2.354-12.78 9.215-1.68-2.354zM339.14 90.896l1.48 2.421-4.641 9.82c-.47 1.01-1.413 2.422-1.413 2.422v.067s1.211-.941 2.018-1.412l7.735-4.776 1.48 2.422-13.452 8.273-1.48-2.421 4.574-9.82c.47-1.01 1.412-2.422 1.412-2.422v-.067s-1.21.941-2.018 1.412l-7.735 4.776-1.48-2.422 13.52-8.273zM348.355 106.5l4.036 8.072-2.22 1.077-2.757-5.516-3.969 2.018 2.354 4.641-2.22 1.076-2.354-4.64-5.717 2.824-1.278-2.556zM354.005 118.137l1.884 4.709c.672 1.614.807 2.354.807 3.094-.067 1.749-1.076 3.228-3.027 3.968-1.749.74-3.767.471-4.977-.874h-.068s-.134.269-.538.807l-4.237 5.18-1.211-2.96 4.305-5.112-1.01-2.556-5.447 2.22-1.077-2.624 14.596-5.852zm-4.843 7.803c.606 1.412 1.75 1.95 3.229 1.345 1.413-.538 2.018-1.48 1.21-3.565l-.806-2.018-4.574 1.816.941 2.422zM350.777 143.832l-1.615-5.314-4.237-.067-.875-2.825 16.682.74.874 2.892-13.453 9.887-.874-2.825 3.498-2.488zm7.802-5.247s-1.614.135-2.556.067l-4.44-.134 1.212 3.968 3.632-2.556c.807-.538 2.152-1.278 2.152-1.345zM352.593 150.558s-1.278 2.018-.807 4.17c.269 1.144 1.076 2.085 2.354 1.816 2.758-.605.672-7.735 5.448-8.811 2.556-.538 4.977 1.21 5.583 4.17.672 3.027-.673 4.977-.673 4.977l-2.556-.74s1.01-1.748.606-3.699c-.27-1.278-1.278-2.152-2.355-1.95-2.757.605-.47 7.667-5.38 8.744-2.422.538-4.91-.875-5.65-4.103-.74-3.43.941-5.785.941-5.785l2.489 1.21zM364.633 164.414l-.673-5.112 2.422-.336 1.816 13.116-2.422.336-.672-5.112-13.184 1.816-.403-2.825zM368.467 175.378l.269 5.044c.067 1.682 0 2.489-.27 3.162-.605 1.614-2.084 2.69-4.17 2.825-1.883.067-3.699-.807-4.439-2.422h-.067s-.202.202-.74.606l-5.717 3.565-.135-3.162 5.717-3.43-.134-2.758-5.852.27-.134-2.893 15.672-.807zm-7.13 5.851c.067 1.548 1.009 2.422 2.623 2.355 1.48-.068 2.422-.74 2.287-3.027l-.134-2.153-4.91.27.134 2.555zM369.072 190.915l-.134 2.893-10.09-.404c-2.085-.067-3.363 1.21-3.43 3.363-.067 2.085 1.076 3.565 3.161 3.632l10.09.404-.135 2.892-10.09-.403c-3.497-.135-5.851-2.758-5.65-6.592.135-3.834 2.624-6.256 6.189-6.121l10.09.336zM367.39 215.802c-.538 3.834-2.892 5.449-2.892 5.449l-1.95-1.682s1.883-1.547 2.22-4.036c.47-3.296-1.75-5.582-4.642-5.986-2.96-.404-5.852 1.21-6.322 4.507-.404 2.69 1.345 4.775 1.345 4.775l-2.22 1.21s-2.22-2.488-1.681-6.456c.672-4.776 4.64-7.6 9.214-6.928 4.574.605 7.534 4.506 6.929 9.147zM362.346 228.38l1.143-5.044 2.422.538-2.96 12.847-2.421-.538 1.143-5.045-12.981-2.96.672-2.824zM362.077 239.882l-.875 2.69-9.618-3.16c-2.018-.673-3.565.269-4.238 2.286-.672 2.018.068 3.7 2.085 4.372l9.552 3.162-.875 2.69-9.618-3.161c-3.363-1.076-4.843-4.305-3.632-7.87 1.21-3.632 4.237-5.313 7.6-4.237l9.619 3.228zM356.225 256.698l-2.018 4.641c-.673 1.547-1.143 2.22-1.681 2.758-1.278 1.143-3.095 1.48-4.978.605-1.749-.74-2.96-2.354-2.892-4.17h-.067s-.27.134-.942.202l-6.66.605 1.279-2.96 6.659-.538 1.076-2.556-5.38-2.354 1.143-2.623 14.46 6.39zm-8.946 2.018c-.605 1.412-.134 2.623 1.278 3.296 1.413.605 2.489.403 3.363-1.682l.875-2.018-4.507-1.95-1.009 2.354zM349.633 271.092l-4.506 8.273-2.153-1.143 3.094-5.785-3.632-1.95-2.489 4.64-2.152-1.143 2.489-4.64-3.7-2.019-3.296 6.121-2.152-1.143 4.641-8.61z"/>
        </g>
        <g fill="#FFF">
            <path d="M77.758 310.44l5.247 4.776-1.278 1.413-3.565-3.229-2.354 2.556 3.027 2.758-1.278 1.412-3.027-2.757-3.363 3.7-1.682-1.48zM89.26 319.992c2.825 2.22 3.296 6.12 1.144 8.879-2.22 2.825-6.121 3.363-9.013 1.143-2.825-2.22-3.296-6.12-1.01-9.013 2.153-2.758 5.987-3.296 8.88-1.01zM82.67 328.4c1.748 1.412 4.372 1.009 5.919-.942 1.48-1.883 1.21-4.44-.606-5.852-1.748-1.412-4.304-1.076-5.784.807-1.547 2.018-1.278 4.574.47 5.987zM96.188 325.44l3.296 2.22c1.144.74 1.547 1.143 1.884 1.681.74 1.144.74 2.556-.202 3.902-.807 1.21-2.22 1.95-3.565 1.681 0 0 .067.27 0 .74l-.404 5.247-2.085-1.346.471-5.179-1.816-1.21-2.556 3.833-1.883-1.21 6.86-10.359zm.404 7.13c1.009.673 2.018.47 2.69-.538.673-1.01.606-1.883-.807-2.825l-1.412-.942-2.153 3.229 1.682 1.076zM115.022 336.471c2.69 1.413 3.228 3.565 3.228 3.565l-1.748 1.009s-.673-1.816-2.355-2.69c-2.287-1.211-4.573-.202-5.582 1.816-1.077 2.085-.606 4.64 1.614 5.851 1.883 1.01 3.901.27 3.901.27l.27 1.95s-2.422 1.01-5.247-.47c-3.363-1.75-4.372-5.449-2.69-8.61 1.748-3.229 5.38-4.372 8.609-2.69zM126.39 341.785c3.362 1.412 4.775 4.977 3.43 8.273-1.413 3.363-5.045 4.91-8.341 3.498-3.363-1.413-4.776-5.045-3.363-8.408 1.345-3.296 4.977-4.776 8.273-3.363zm-4.104 9.82c2.085.875 4.44-.134 5.448-2.488.942-2.22 0-4.574-2.085-5.449-2.085-.874-4.439.068-5.38 2.354-1.01 2.287-.068 4.709 2.017 5.583zM134.528 345.215l2.152.673 2.22 8.206c.202.807.404 2.152.404 2.152s.269-1.143.47-1.883l2.22-6.794 2.085.673-3.766 11.704-2.086-.673-2.287-8.206c-.201-.807-.403-2.152-.403-2.152s-.27 1.143-.471 1.883l-2.152 6.726-2.153-.672 3.767-11.637zM145.492 358.13s1.009 1.614 2.69 2.018c.942.201 1.884-.068 2.085-1.01.538-2.152-5.179-3.16-4.304-6.86.47-2.018 2.556-3.027 4.842-2.489 2.355.606 3.229 2.153 3.229 2.153l-1.345 1.547s-.875-1.346-2.354-1.682c-1.01-.269-1.951.135-2.153 1.009-.538 2.152 5.247 2.96 4.305 6.793-.47 1.884-2.287 3.162-4.776 2.556-2.69-.672-3.7-2.623-3.7-2.623l1.48-1.412zM156.86 351.47l2.219.404-1.346 7.803c-.269 1.614.606 2.757 2.22 3.027 1.614.269 2.892-.471 3.161-2.086l1.346-7.735 2.22.404-1.346 7.802c-.47 2.69-2.758 4.238-5.65 3.7-2.96-.538-4.574-2.69-4.103-5.381l1.278-7.937zM170.379 353.69l2.354.202 1.883 6.256c.202.74.471 1.883.471 1.883h.067s.404-1.076.74-1.749l2.893-5.852 2.354.202-.067 12.376-2.22-.201.067-6.928c0-.808.135-1.884.135-1.884h-.068s-.47 1.144-.807 1.816l-2.421 4.574-1.95-.134-1.548-4.91c-.202-.74-.538-1.951-.538-1.951h-.067s-.067 1.076-.202 1.95l-1.076 6.794-2.22-.202 2.22-12.242zM185.177 354.7l7.398.067v1.95l-5.112-.067v3.229h4.17v1.95h-4.17v3.296l5.381.067v1.95l-7.667-.066zM195.4 354.7l3.969-.202c1.345-.068 1.95 0 2.489.201 1.278.471 2.085 1.615 2.22 3.229.067 1.48-.606 2.892-1.884 3.498v.067s.202.134.47.605l2.826 4.44-2.489.134-2.69-4.44-2.153.135.27 4.574-2.22.135-.808-12.377zm4.574 5.515c1.211-.067 1.884-.807 1.816-2.085-.067-1.211-.605-1.884-2.354-1.75l-1.681.068.201 3.834 2.018-.067zM211.745 353.354l4.372-.673c2.22-.336 3.902.539 4.238 2.556.202 1.144-.202 2.22-1.076 2.825v.068c1.412.201 2.22 1.345 2.421 2.556.404 2.421-1.412 3.834-3.632 4.17l-4.372.673-1.95-12.175zm5.112 4.305c.942-.135 1.413-.942 1.278-1.816-.134-.875-.74-1.413-1.749-1.278l-2.085.336.471 3.094 2.085-.336zm1.076 5.246c1.144-.201 1.682-1.009 1.48-2.018-.134-1.008-.942-1.614-2.018-1.48l-2.354.404.538 3.498 2.354-.404zM222.776 351.538l2.153-.538 1.816 7.668c.403 1.614 1.614 2.287 3.228 1.883 1.615-.403 2.422-1.547 2.085-3.161l-1.816-7.668 2.153-.538 1.816 7.668c.605 2.69-.875 4.977-3.767 5.65-2.892.672-5.246-.673-5.919-3.363l-1.749-7.601zM238.516 356.986s1.681.875 3.296.337c.874-.27 1.547-1.01 1.278-1.951-.673-2.085-6.121 0-7.198-3.632-.605-1.95.606-3.969 2.893-4.641 2.287-.74 3.9.201 3.9.201l-.403 2.018s-1.412-.672-2.892-.201c-1.009.336-1.614 1.143-1.345 1.95.672 2.085 6.053-.134 7.197 3.632.605 1.884-.336 3.902-2.825 4.641-2.623.808-4.574-.336-4.574-.336l.673-2.018zM245.04 345.215l2.085-.74 4.238 11.57-2.085.74zM250.421 343.332l2.085-.874 7.13 4.708c.74.47 1.682 1.345 1.682 1.345s-.606-1.009-.875-1.681l-2.825-6.525 2.018-.874 4.91 11.3-2.018.874-7.062-4.64c-.74-.472-1.682-1.346-1.682-1.346s.606 1.009.875 1.681l2.825 6.525-2.085.874-4.978-11.367zM262.663 337.816l6.524-3.43.875 1.682-4.574 2.354 1.48 2.892 3.7-1.883.874 1.681-3.7 1.884 1.547 2.96 4.776-2.49.874 1.682-6.793 3.565zM276.72 340.709s1.817.403 3.297-.471c.807-.47 1.278-1.345.74-2.22-1.144-1.883-5.92 1.413-7.87-1.816-1.076-1.749-.337-3.968 1.681-5.18 2.085-1.277 3.834-.739 3.834-.739l.135 2.085s-1.547-.336-2.892.471c-.875.538-1.278 1.48-.808 2.22 1.144 1.883 5.785-1.547 7.87 1.816 1.009 1.681.605 3.834-1.614 5.179-2.354 1.412-4.507.74-4.507.74l.135-2.085zM285.6 335.126s1.815.336 3.295-.673c.74-.538 1.211-1.412.606-2.22-1.278-1.815-5.785 1.817-7.937-1.345-1.144-1.681-.538-3.968 1.345-5.313 2.018-1.346 3.767-1.01 3.767-1.01l.201 2.019s-1.614-.202-2.825.672c-.874.606-1.21 1.547-.672 2.287 1.21 1.816 5.717-1.95 7.937 1.345 1.143 1.615.807 3.834-1.278 5.247-2.287 1.547-4.44 1.009-4.44 1.009v-2.018zM288.29 322.077l5.784-4.574 1.211 1.547-4.036 3.162 2.018 2.556 3.296-2.556 1.21 1.547-3.295 2.556 2.018 2.623 4.237-3.363 1.211 1.547-6.053 4.708zM302.617 322.279s1.883.067 3.161-1.076c.673-.606 1.01-1.547.336-2.287-1.48-1.682-5.582 2.488-8.071-.337-1.345-1.547-1.076-3.834.74-5.38 1.816-1.615 3.632-1.48 3.632-1.48l.47 2.017s-1.613 0-2.757 1.01c-.807.672-1.009 1.681-.404 2.354 1.48 1.614 5.449-2.624 8.072.336 1.278 1.48 1.278 3.7-.673 5.38-2.018 1.817-4.304 1.548-4.304 1.548l-.202-2.085z"/>
        </g>
    </g>
</svg>
