<svg xmlns="http://www.w3.org/2000/svg" width="32" height="37" viewBox="0 0 32 37">
    <g fill="none" fill-rule="evenodd">
        <path fill="#E2574C" d="M2.321 0h19.393l10.279 10.35v24.256c0 1.274-1.023 2.307-2.283 2.307H2.321c-1.26 0-2.282-1.033-2.282-2.307V2.307C.039 1.032 1.06 0 2.32 0z"/>
        <path fill="#B53629" d="M31.96 10.382h-7.956c-1.26 0-2.282-1.034-2.282-2.307V.023L31.96 10.382z"/>
        <path fill="#FFF" d="M23.431 17.49c.383 0 .57-.336.57-.663 0-.338-.195-.664-.57-.664h-2.177c-.426 0-.663.356-.663.75v5.409c0 .482.271.75.639.75.365 0 .638-.268.638-.75v-1.485h1.317c.408 0 .613-.338.613-.674 0-.328-.205-.655-.613-.655h-1.317v-2.017h1.563zm-7.36-1.327H14.48c-.433 0-.74.3-.74.745v5.418c0 .553.442.726.758.726h1.672c1.978 0 3.285-1.316 3.285-3.348-.001-2.148-1.231-3.541-3.382-3.541zm.077 5.553h-.971V17.5h.875c1.325 0 1.902.898 1.902 2.138 0 1.16-.567 2.08-1.806 2.08zm-5.836-5.553H8.734c-.446 0-.695.298-.695.75v5.409c0 .482.285.75.668.75.384 0 .67-.268.67-.75v-1.58h.989c1.22 0 2.228-.874 2.228-2.28 0-1.376-.972-2.299-2.282-2.299zm-.026 3.31h-.91v-2.04h.91c.561 0 .918.443.918 1.02 0 .578-.357 1.02-.918 1.02z"/>
    </g>
</svg>
