<svg xmlns="http://www.w3.org/2000/svg" width="66" height="60" viewBox="0 0 66 60">
    <defs>
        <linearGradient id="a" x1="4.391%" y1="0%" y2="100%">
            <stop offset="0%" stop-color="#13D6DE"/>
            <stop offset="100%" stop-color="#317BDA"/>
        </linearGradient>
    </defs>
    <path fill="url(#a)" fill-rule="evenodd" d="M83.682 85.872l-3.892-1.043a3.765 3.765 0 0 1-2.661-4.61l6.332-23.63a3.765 3.765 0 0 1 4.61-2.662l38.504 10.317h-14.542l-15.848-4.246a5.645 5.645 0 0 1-6.914 3.992l-.068.254h-2.52a3 3 0 0 0-3 3v18.628zm4.841-35.974l5.807-8.293a3.765 3.765 0 0 1 5.242-.925l28.172 19.727-10.63-2.849-11.993-8.397a5.645 5.645 0 0 1-7.863 1.386l-.997 1.424-7.738-2.073zm49.734 18.11a3.765 3.765 0 0 1 3.764 3.764v24.464a3.765 3.765 0 0 1-3.764 3.764H91.21a3.765 3.765 0 0 1-3.764-3.764V71.772a3.765 3.765 0 0 1 3.764-3.764h47.047zm-3.764 22.583V77.417a5.645 5.645 0 0 1-5.645-5.645h-28.229a5.645 5.645 0 0 1-5.645 5.645v13.174a5.645 5.645 0 0 1 5.645 5.645h28.229a5.645 5.645 0 0 1 5.645-5.645zm-19.779-11.162a5.143 5.143 0 1 1 0 10.285 5.143 5.143 0 0 1 0-10.285z" transform="translate(-77 -40)"/>
</svg>
