<svg xmlns="http://www.w3.org/2000/svg" width="102" height="39" viewBox="0 0 102 39">
    <g fill="none" fill-rule="evenodd">
        <path fill="#000" d="M.572 38.937h100.54V.018H.572z"/>
        <g fill="#FFF">
            <path d="M80.166 12.854c.1 1.117-.872 2.75-1.495 3.092l-.437-.44c.569-.805.457-2.652-.104-2.93l.06-.138c.456 0 1.248.156 1.539.236.276.082.288.104.437.18M88.818 22.644c0 2.152-1.643 3.706-4.44 3.706-1.097 0-2.594-.22-3.26-.537 0 0-.06-.091-.06-.458 0-.918.082-2.424.101-2.692h.582c.052.277.098.662.23 1.097.364 1.218 1.37 1.675 2.59 1.675 1.237 0 2.287-.64 2.287-1.959 0-1.002-.647-1.504-1.89-2.525l-.727-.6c-1.563-1.288-2.801-2.403-2.801-4.087 0-1.887 1.568-3.37 4.191-3.37 1.079 0 2.217.202 2.636.3.159.037.25.065.25.18 0 .214-.083 1.29-.083 2.59h-.518c-.362-1.264-.611-2.174-2.472-2.174-1.477 0-2.077.96-2.077 1.833 0 .83.66 1.487 1.953 2.515l.725.577c1.88 1.495 2.783 2.293 2.783 3.929M62.628 13.634c-.787 0-1.397.22-2.078 1.012-.57.673-2.674 4.588-3.152 5.645-.176.386-.271.41-.271 1.196v1.596c0 .266-.01.874.043 1.573.034.483.203.852.726.918.242.033.795.06 1.037.06v.519h-5.832v-.519c.244 0 .902-.027 1.059-.06.184-.035.585-.111.644-.918.051-.699.063-1.307.063-1.573V21.39c0-.581-.038-.609-.417-1.277-.261-.457-2.297-4.198-2.903-5.067-.711-1.008-1.132-1.41-2.281-1.41v-.497h3.753s.068.218.581 1.25c.243.5 2.482 4.6 2.76 5.067 0 0 2.345-4.306 3.445-6.317h2.823v.496zM33.553 23.281s-.425 1.972-.56 2.45c-.104.368-.166.421-.166.421H23.53v-.518c.26 0 .837-.05.994-.082.347-.066.498-.313.56-.798.078-.578.084-1.912.084-3.445v-3.252c0-2.533-.006-2.891-.042-3.428-.034-.57-.153-.834-.726-.96-.141-.027-.602-.035-.831-.035v-.497h3.883v1.453s-.02.89-.02 3.39v3.265c0 2.286-.007 3.255.353 3.556.292.241.99.336 2.32.336 1.216 0 1.624-.047 2.037-.44.348-.337.508-.687.705-1.416h.706zM22.285 23.281s-.423 1.972-.561 2.45c-.104.368-.164.421-.164.421h-9.3v-.518c.262 0 .838-.05.995-.082.347-.066.498-.313.564-.798.074-.578.08-1.912.08-3.445v-3.252c0-2.533-.006-2.891-.042-3.428-.034-.57-.153-.834-.725-.96-.142-.027-.604-.035-.83-.035v-.497h3.881v1.453s-.023.89-.023 3.39v3.265c0 2.286-.004 3.255.354 3.556.294.241.992.336 2.326.336 1.212 0 1.62-.047 2.034-.44.347-.337.507-.687.704-1.416h.707zM75.058 19.835c0-2.173-.906-3.513-1.64-4.19-1.598-1.469-3.5-1.653-4.835-1.653-.342 0-.98.059-1.12.116-.151.073-.2.162-.204.34-.014.561-.024 1.996-.024 3.291v2.45c0 1.742.028 2.998.041 3.31.019.414.055 1.072.187 1.255.228.315.87.659 2.219.659 1.747 0 2.851-.324 3.88-1.174 1.123-.932 1.496-2.714 1.496-4.404m2.407-.485c0 2.294-.916 4.015-1.888 4.966-.801.784-2.432 1.836-5.646 1.836h-6.723v-.518c1.162-.033 1.597-.006 1.703-.938.084-.711.063-2.63.063-3.491v-3.148c0-2.533-.008-2.891-.04-3.428-.04-.57-.175-.834-.75-.96-.14-.027-.61-.035-.853-.035v-.497h5.48c2.17 0 5.06-.01 6.954 1.89.867.87 1.7 2.261 1.7 4.323M46.087 19.928c0-3.718-2.003-6.057-4.73-6.057-2.023 0-3.986 1.474-3.986 5.264 0 3.209 1.69 6.197 4.731 6.197 2.498 0 3.985-1.86 3.985-5.404m2.595-.597c0 3.891-2.642 7.042-7.037 7.042-4.862 0-6.808-3.639-6.808-6.741 0-3.154 2.044-6.737 6.974-6.737 4.342 0 6.871 2.62 6.871 6.436"/>
        </g>
    </g>
</svg>
