<svg xmlns="http://www.w3.org/2000/svg" width="99" height="40" viewBox="0 0 99 40">
    <defs>
        <linearGradient id="a" x1="4.391%" y1="0%" y2="100%">
            <stop offset="0%" stop-color="#13D6DE"/>
            <stop offset="100%" stop-color="#317BDA"/>
        </linearGradient>
    </defs>
    <path fill="url(#a)" fill-rule="evenodd" d="M202.4 54.427l-23.27 23.27a3.52 3.52 0 0 1-2.495 1.032 3.52 3.52 0 0 1-2.495-1.033l-23.27-23.269v32.044a1.06 1.06 0 0 0 1.06 1.058h49.411a1.06 1.06 0 0 0 1.059-1.058V54.427zM201.341 50a3.53 3.53 0 0 1 3.53 3.53v32.94a3.53 3.53 0 0 1-3.53 3.53H151.93a3.53 3.53 0 0 1-3.529-3.53V53.53a3.53 3.53 0 0 1 3.53-3.53h49.411zm-.479 2.47h-48.454l23.48 23.48c.268.269.584.309.747.309.164 0 .48-.04.749-.31l23.478-23.478zM115.235 58h22.236a1.235 1.235 0 0 1 0 2.47h-22.236a1.235 1.235 0 0 1 0-2.47zm-8 10.4h22.236a1.235 1.235 0 0 1 0 2.47h-22.236a1.235 1.235 0 0 1 0-2.47zm8 10.4h22.236a1.235 1.235 0 0 1 0 2.47h-22.236a1.235 1.235 0 0 1 0-2.47z" transform="translate(-106 -50)"/>
</svg>
