<svg xmlns="http://www.w3.org/2000/svg" width="63" height="50" viewBox="0 0 63 50">
    <defs>
        <linearGradient id="a" x1="4.391%" y1="0%" y2="100%">
            <stop offset="0%" stop-color="#13D6DE"/>
            <stop offset="100%" stop-color="#317BDA"/>
        </linearGradient>
    </defs>
    <path fill="url(#a)" fill-rule="evenodd" d="M151.106 65l-4.503-3.93a1.768 1.768 0 0 1-.603-1.306c0-.477.201-.922.568-1.254.752-.678 1.803-.68 2.557-.005l7.204 6.218c.543.47.843 1.1.843 1.777 0 .676-.3 1.306-.843 1.776l-7.209 6.222c-.37.334-.818.502-1.267.502-.453 0-.906-.17-1.285-.512a1.673 1.673 0 0 1-.568-1.252c0-.485.217-.959.595-1.3l4.51-3.936H125.5a1.5 1.5 0 0 1 0-3h25.606zM127 60V49a4 4 0 0 1 4-4h52a4 4 0 0 1 4 4v34a4 4 0 0 1-4 4h-20.944L164 92h-14l1.944-5H131a4 4 0 0 1-4-4V73h3v10a1 1 0 0 0 1 1h52a1 1 0 0 0 1-1V49a1 1 0 0 0-1-1h-52a1 1 0 0 0-1 1v11h-3zm20.5 32h19a1.5 1.5 0 0 1 0 3h-19a1.5 1.5 0 0 1 0-3z" transform="translate(-124 -45)"/>
</svg>
