<svg xmlns="http://www.w3.org/2000/svg" width="40" height="39" viewBox="0 0 40 39">
    <defs>
        <linearGradient id="a" x1="4.391%" y1="0%" y2="100%">
            <stop offset="0%" stop-color="#13D6DE"/>
            <stop offset="100%" stop-color="#317BDA"/>
        </linearGradient>
    </defs>
    <path fill="url(#a)" fill-rule="evenodd" d="M681.833 1381.527c-.206-.907-.948-1.113-.948-1.113l-3.422.37-3.092-7.255c-.288-.824-1.278-2.185-3.339-2.39H652.77c-2.062.205-3.051 1.524-3.34 2.39l-3.05 7.256-3.298-.33s-.742.206-.948 1.113c-.207.907-.454 2.515 1.607 3.05l1.113.124c-1.36 2.639-2.844 7.297.99 11.255.082.082 1.03.824 1.525.948v2.308c0 .866.701 1.567 1.567 1.567h2.102c.866 0 1.567-.7 1.567-1.567v-2.184h18.468v2.143c0 .866.701 1.567 1.567 1.567h2.144c.865 0 1.566-.701 1.566-1.567v-2.308a2.87 2.87 0 0 0 1.443-.949c3.916-3.916 2.68-8.615 1.32-11.295l.947-.083c2.227-.535 1.98-2.102 1.773-3.05zm-29.93-7.05l.042-.082c.041-.083.247-.536 1.03-.66h17.851c.783.083 1.03.536 1.03.619l3.051 7.173-26.013-.041 3.01-7.009zm-1.277 16.12a2.305 2.305 0 0 1-2.309-2.31 2.305 2.305 0 0 1 2.309-2.308 2.305 2.305 0 0 1 2.309 2.309c0 1.278-1.072 2.308-2.31 2.308zm22.303 0a2.305 2.305 0 0 1-2.31-2.31 2.305 2.305 0 0 1 2.31-2.308 2.305 2.305 0 0 1 2.308 2.309c.041 1.236-.99 2.308-2.308 2.308zm-29.064-13.11a1.196 1.196 0 1 1 0-2.391 1.196 1.196 0 0 1 0 2.39zm36.937-.701a1.196 1.196 0 1 1 0-2.391 1.196 1.196 0 0 1 0 2.39zm-13.562-9.276a1.196 1.196 0 1 1 0-2.39 1.196 1.196 0 0 1 0 2.39zm-20.242 2.185l-.66 1.732-.742-1.732-1.73-.742 1.648-.618.742-1.938.825 1.897 1.607.66-1.69.741zm31.53-.979l1.945.778-1.994.876-.827 2.042-.826-2.042-2.042-.876 1.896-.729.924-2.285.924 2.236zm-19.805-2.156l-.97 2.393-.968-2.393-2.394-1.026 2.223-.912 1.083-2.622 1.14 2.622 2.222.912-2.336 1.026z" transform="translate(-642 -1362)"/>
</svg>
