<svg xmlns="http://www.w3.org/2000/svg" width="38" height="40" viewBox="0 0 38 40">
    <defs>
        <linearGradient id="a" x1="4.391%" y1="0%" y2="100%">
            <stop offset="0%" stop-color="#13D6DE"/>
            <stop offset="100%" stop-color="#317BDA"/>
        </linearGradient>
    </defs>
    <path fill="url(#a)" fill-rule="evenodd" d="M646.556 1259.444h30.222V1239h-30.222v20.444zm4.444-29.333v1.778a1.777 1.777 0 1 0 3.556 0v-1.778h14.222v1.778a1.777 1.777 0 1 0 3.555 0v-1.778h4.445v5.333h-30.222v-5.333H651zm26.667-3.555a2.666 2.666 0 0 1 2.666 2.666v31.111a2.667 2.667 0 0 1-2.666 2.667h-32a2.667 2.667 0 0 1-2.667-2.667v-31.11a2.666 2.666 0 0 1 2.667-2.667H651v-1.778a1.777 1.777 0 1 1 3.556 0v1.778h14.222v-1.778a1.777 1.777 0 1 1 3.555 0v1.778h5.334zm-9.84 16l-8.16 7.688-3.556-3.662a1.779 1.779 0 1 0-2.551 2.48l4.791 4.916a1.778 1.778 0 0 0 2.489.053l9.431-8.889a1.78 1.78 0 1 0-2.444-2.586z" transform="translate(-643 -1223)"/>
</svg>
