<svg xmlns="http://www.w3.org/2000/svg" xmlns:xlink="http://www.w3.org/1999/xlink" width="252" height="350" viewBox="0 0 252 350">
    <defs>
        <path id="b" d="M3 0h215.757a3 3 0 0 1 2.122.879L249.12 29.12a3 3 0 0 1 .879 2.122V342a3 3 0 0 1-3 3H3a3 3 0 0 1-3-3V3a3 3 0 0 1 3-3z"/>
        <filter id="a" width="101.6%" height="102%" x="-.8%" y="-.6%" filterUnits="objectBoundingBox">
            <feMorphology in="SourceAlpha" operator="dilate" radius=".5" result="shadowSpreadOuter1"/>
            <feOffset dy="3" in="shadowSpreadOuter1" result="shadowOffsetOuter1"/>
            <feComposite in="shadowOffsetOuter1" in2="SourceAlpha" operator="out" result="shadowOffsetOuter1"/>
            <feColorMatrix in="shadowOffsetOuter1" values="0 0 0 0 0.917647059 0 0 0 0 0.937254902 0 0 0 0 0.952941176 0 0 0 1 0"/>
        </filter>
    </defs>
    <g fill="none" fill-rule="evenodd">
        <g transform="translate(1 1)">
            <use fill="#000" filter="url(#a)" xlink:href="#b"/>
            <use fill="#FFF" stroke="#EAEFF3" xlink:href="#b"/>
        </g>
        <path fill="#EAEFF3" d="M221 1l30 30h-27a3 3 0 0 1-3-3V1z"/>
    </g>
</svg>
