<svg xmlns="http://www.w3.org/2000/svg" width="11" height="19" viewBox="0 0 11 19">
    <path fill="#31CFDA" fill-rule="evenodd" d="M9.14 14.18V2.5h-7.5v11.68h7.5zM5.4 17.5c.347 0 .64-.12.88-.36s.36-.533.36-.88-.12-.643-.36-.89A1.18 1.18 0 0 0 5.4 15c-.347 0-.643.12-.89.36s-.37.54-.37.9.12.657.36.89c.24.233.54.35.9.35zM8.76 0c.36 0 .7.097 1.02.29.32.193.573.45.76.77.187.32.28.667.28 1.04v14.16c0 .373-.093.72-.28 1.04-.187.32-.44.577-.76.77-.32.193-.66.29-1.02.29H2.08c-.373 0-.72-.097-1.04-.29a2.156 2.156 0 0 1-.76-.77A2.028 2.028 0 0 1 0 16.26V2.1c0-.373.093-.72.28-1.04.187-.32.44-.577.76-.77C1.36.097 1.707 0 2.08 0h6.68z"/>
</svg>
