<svg xmlns="http://www.w3.org/2000/svg" width="61" height="50" viewBox="0 0 61 50">
    <g fill="#F5F7F9" fill-rule="nonzero">
        <path d="M4.28 46.532c0-1.354-.77-2.14-2.08-2.14h-.835v4.28h.852c1.402 0 2.062-.66 2.062-2.14zM.083 49.785v-6.499h2.18c1.026 0 1.73.146 2.382.777.613.594.935 1.446.935 2.506 0 1.18-.45 2.129-1.292 2.733-.568.411-1.183.483-1.989.483H.084zM7.52 44.456c0 .832-.338 1.217-1.145 1.235v-.659c.286-.037.386-.155.386-.438v-.074h-.386v-1.234h1.146v1.17M10.317 43.924v5.212h.7v.65H8.35v-.65h.7v-5.212h-.7v-.65h2.666v.65h-.699M13.778 45.782c-.605 0-1.135.393-1.31 1.006h2.675c-.192-.66-.67-1.006-1.365-1.006zm.018 3.054c.506 0 .935-.22 1.174-.613h1.235c-.421 1.08-1.29 1.692-2.38 1.692a2.48 2.48 0 0 1-1.842-.768 2.65 2.65 0 0 1-.732-1.81c0-.685.239-1.299.695-1.784.503-.53 1.155-.822 1.832-.822.853 0 1.623.402 2.135 1.106.33.437.466.96.466 1.609 0 .083-.007.164-.007.247h-3.939c.072.703.585 1.143 1.363 1.143zM17.441 45.89h-.63v-1.013h.752v-1.59h1.145v1.59h.76v1.014h-.76v3.894H17.44v-3.894M22.253 45.782c-.605 0-1.136.393-1.432 1.006h2.676c-.072-.66-.548-1.006-1.244-1.006zm.018 3.054c.503 0 .933-.22 1.171-.613h1.238c-.422 1.08-1.294 1.692-2.383 1.692-.724 0-1.345-.257-1.839-.768a2.645 2.645 0 0 1-.735-1.81c0-.685.24-1.299.697-1.784.504-.53 1.153-.822 1.833-.822.851 0 1.62.402 2.133 1.106.33.437.468.96.468 1.609 0 .083-.009.164-.13.247h-3.94c.195.703.708 1.143 1.487 1.143zM26.544 47.281v2.504h-1.146v-4.908h1.074v.566c.339-.43.733-.64 1.263-.64v1.071c-.98.072-1.191.493-1.191 1.407M30.439 45.782c-.605 0-1.016.393-1.189 1.006h2.673c-.192-.66-.789-1.006-1.484-1.006zm.14 3.054c.502 0 .933-.22 1.172-.613h1.234c-.42 1.08-1.29 1.692-2.38 1.692a2.48 2.48 0 0 1-1.842-.768 2.65 2.65 0 0 1-.732-1.81c0-.685.239-1.299.695-1.784.505-.53 1.155-.822 1.834-.822.85 0 1.62.402 2.132 1.106.33.437.466.96.466 1.609 0 .083-.006.164-.127.247h-3.94c.194.703.708 1.143 1.487 1.143zM34.99 45.435c.34-.45.761-.658 1.32-.658.715 0 1.235.273 1.585.803.292.458.199.97.199 1.61l.12 2.595H37.07V47.61c0-1.16-.183-1.72-1.016-1.72-.834 0-1.073.605-1.073 1.794v2.101h-1.108v-4.908h1.117v.558M44.294 45.125l-.789 2.091h1.437l-.648-2.091zm-1.732 4.66h-1.32l2.53-6.499h1.097l2.492 6.5h-1.363l-.515-1.361h-2.54l-.381 1.36zM50.806 49.256c-.34.448-.76.659-1.32.659-1.218 0-1.914-.768-1.914-2.194v-2.844h1.155l-.121 2.203c0 1.161.294 1.729 1.136 1.729.835 0 1.072-.613 1.072-1.803v-2.13h1.126v4.91h-1.134v-.53M53.296 45.89h-.75v-1.013h.75v-1.59h1.146v1.59h.758v1.014h-.88l.122 3.894h-1.146v-3.894M57.9 48.781c.835 0 1.394-.567 1.394-1.509 0-.84-.606-1.416-1.394-1.416-.823 0-1.39.594-1.39 1.443 0 .924.549 1.482 1.39 1.482zM56.07 45.5a2.549 2.549 0 0 1 1.804-.768c.716 0 1.31.237 1.806.704.513.492.804 1.17.804 1.846 0 .74-.238 1.363-.732 1.866-.494.51-1.127.768-1.86.768a2.425 2.425 0 0 1-1.84-.787 2.629 2.629 0 0 1-.724-1.82c0-.685.257-1.325.742-1.809zM36.762 34.606c.16 0 .284.132.284.292 0 .161-.123.303-.284.303H34.98l-.17 1.098c.246-.114.53-.16.805-.16.882 0 1.64.472 1.64 1.388 0 .89-.844 1.486-1.735 1.486-.578 0-1.107-.152-1.553-.549a.342.342 0 0 1-.104-.236c0-.058.02-.123.057-.18a.335.335 0 0 1 .237-.104c.065 0 .132.018.179.065.37.312.71.417 1.184.417.55 0 1.07-.321 1.07-.88 0-.538-.473-.822-.975-.822a2.05 2.05 0 0 0-1.022.255.322.322 0 0 1-.172.047c-.16 0-.293-.151-.293-.312 0-.057.275-1.816.293-1.843a.306.306 0 0 1 .295-.265h2.046M31.864 36.762c0-1.021-.378-1.645-1.08-1.645-.7 0-1.08.624-1.08 1.645 0 1.02.38 1.655 1.08 1.655.702 0 1.08-.635 1.08-1.655zm-1.08-2.24c1.193 0 1.743 1.114 1.743 2.24 0 1.134-.55 2.25-1.743 2.25s-1.742-1.116-1.742-2.25c0-1.126.549-2.24 1.742-2.24zM26.787 35.703c0-.35-.304-.615-.767-.615-.464 0-.767.245-.767.615 0 .406.36.661.767.661.398 0 .767-.264.767-.66zm.293 1.947c0-.473-.474-.765-1.06-.765-.587 0-1.061.292-1.061.765 0 .463.455.776 1.06.776.606 0 1.06-.313 1.06-.776zm.35-2.005c0 .36-.199.681-.53.899.522.208.844.625.844 1.135 0 .738-.72 1.334-1.724 1.334s-1.725-.596-1.725-1.334c0-.51.323-.927.844-1.135-.322-.218-.532-.54-.532-.899 0-.624.57-1.124 1.413-1.124.833 0 1.41.5 1.41 1.124zM22.61 34.871v3.772c0 .18-.153.332-.332.332a.345.345 0 0 1-.34-.332v-3.395c-.143.048-.863.312-1.015.322h-.018a.31.31 0 0 1-.304-.302c0-.02 0-.038.01-.058a.264.264 0 0 1 .188-.216c.172-.058 1.252-.417 1.432-.445h.038a.33.33 0 0 1 .34.322"/>
        <path d="M41.768 26.718c.476-1.985 2.137-3.842 3.952-4.415 2.365-.745 4.758-.01 6.254 1.917.802 1.263 1.043 2.738.649 4.038l-.052.173 3.286.151.044-.052c.36-.42.361-.957.363-1.476l.008-.361c-.028-3.124-2.306-6.235-5.416-7.403-3.422-1.208-7.304-.383-9.663 2.052-.797.795-1.438 1.752-2.057 2.679-1.093 1.634-2.128 3.179-3.967 3.952-.476.098-.96.016-1.387-.134 2.07-1.008 3.368-2.852 4.603-4.664.603-.886 1.226-1.803 1.931-2.595 2.98-2.914 7.763-3.805 11.371-2.112 2.879 1.037 5.221 4.133 5.581 7.364.328 3.78-1.623 7.161-4.973 8.609-2.863 1.257-6.59.659-8.67-1.39-1.222-1.292-2.54-3.445-1.857-6.333zM54.321 16.13h-.002c-3.92-2.291-9.94-2.202-13.706.2.004-.002.008-.002.008-.001 0 .008-.324.176-.324.176a.483.483 0 0 1-.175.102l1.341-5.21 2.109-8.291-.197.018c-1.22.108-2.43.084-3.409-.069-2.111.033-3.994-.763-5.817-1.533C31.596.443 28.956-.672 25.802.567 22.861 1.9 18.895 3.37 14.262 2.914l-.197-.019 2.477 10.29.951 4.248a2.99 2.99 0 0 1-.618-.28l-.682-.36c-.78-.565-1.791-.791-2.77-1.01-1.615-.363-3.142-.704-3.763-2.537l-.032-.09-3.293-.153.017.163c.23 2.195 2.061 4.399 4.348 5.236 2.409.46 4.399 1.286 6.107 2.533 1.314.876 2.183 2.104 3.026 3.293.97 1.369 1.997 2.762 3.662 3.577-.422.16-.859.32-1.306.165-1.55-.581-2.389-1.803-3.277-3.096-.675-.984-1.372-2-2.42-2.748-2.78-2.343-7.058-3.045-10.39-1.7-3.483 1.315-5.96 4.886-6.018 8.686.002-.017.042.142.05.164l-.021.014-.03.094c.026.827.219 1.598.406 2.342l.078.31c.72 2.835 3.609 5.424 6.577 5.897 3.387.496 6.417-.839 8.107-3.57 1.536-2.27 1.069-5.656-.269-7.615-1.663-2.168-4.19-3.07-6.769-2.413l-.107.027.076 3.374 1.037-.28.413-.102c1.367.068 2.483.745 2.941 1.814.569 1.01.376 2.5-.132 3.365-.854 1.598-2.524 2.41-4.589 2.233-2.009-.316-3.91-2.017-4.315-3.873-.67-2.1-.077-4.36 1.579-6.059 1.711-1.823 4.728-2.42 7.339-1.453 1.913.671 2.992 2.155 4.136 3.725.969 1.336 1.974 2.718 3.533 3.547 1.714.996 4.233.531 5.734-.412 1.448-1.144 2.26-2.6 2.355-4.22l.007-.129-1.067-.159c-2.46-.374-4.948-2.617-5.546-5L18.183 6.132l.078-.07c.69.036 1.419-.11 2.125-.252l.63-.122c1.334-.13 2.571-.663 3.767-1.18 1.954-.844 3.796-1.64 6.081-.846a24.639 24.639 0 0 0 8.512 2.627s-.002 0-.002.002c0 .014.041.058.078.099l-3.62 14.006-.53 1.46c-1.164 2.28-3.582 3.863-6.156 4.016l-.126.009-.006.125c-.024.51.092.957.206 1.391l.066.26c.71 1.775 2.394 3.225 4.1 3.542 1.774.363 3.513-.188 5.054-1.528.55 2.86 2.117 5.307 4.461 6.894 2.969 1.966 7.35 2.358 10.658.953 3.81-1.665 6.675-5.588 6.97-9.546.433-4.82-1.887-9.247-6.208-11.842z"/>
    </g>
</svg>
