<svg xmlns="http://www.w3.org/2000/svg" width="32" height="22" viewBox="0 0 32 22">
    <defs>
        <linearGradient id="a" x1="4.391%" y1="0%" y2="100%">
            <stop offset="0%" stop-color="#13D6DE"/>
            <stop offset="100%" stop-color="#317BDA"/>
        </linearGradient>
    </defs>
    <path fill="url(#a)" fill-rule="evenodd" d="M51.312 271.376V262H46v9.376h5.312zm1.376-12c.363 0 .672.128.928.384s.384.565.384.928V274c0 .363-.128.683-.384.96a1.217 1.217 0 0 1-.928.416h-8c-.363 0-.683-.139-.96-.416-.277-.277-.416-.597-.416-.96v-13.312c0-.363.139-.672.416-.928.277-.256.597-.384.96-.384h8zm-25.376-2.688v14.688h13.376v4H22v-4h2.688v-14.688c0-.725.256-1.355.768-1.888.512-.533 1.13-.8 1.856-.8h24v2.688h-24z" transform="translate(-22 -254)"/>
</svg>
