<svg xmlns="http://www.w3.org/2000/svg" width="24" height="35" viewBox="0 0 24 35">
    <defs>
        <linearGradient id="a" x1="4.391%" y1="0%" y2="100%">
            <stop offset="0%" stop-color="#13D6DE"/>
            <stop offset="100%" stop-color="#317BDA"/>
        </linearGradient>
    </defs>
    <path fill="url(#a)" fill-rule="evenodd" d="M349.375 125.192l-12.192 16.301 8.972.034-2.465 14.281 12.191-17.603-8.972-.034 2.466-12.98zm.102-2.192a2.144 2.144 0 0 1 1.507.668c.411.422.617.93.617 1.524 0 .091-.006.177-.018.257-.011.08-.028.165-.05.256l-1.987 10.309h6.335c.411 0 .794.108 1.148.325.354.217.622.508.804.873.183.366.257.754.223 1.165a2.359 2.359 0 0 1-.394 1.13l-12.294 17.603c-.229.296-.48.519-.754.667a1.91 1.91 0 0 1-.924.223c-.16 0-.314-.011-.463-.034a1.442 1.442 0 0 1-.428-.137 2.256 2.256 0 0 1-1.061-.976 2.06 2.06 0 0 1-.24-1.421l2.02-11.747-6.335-.034c-.411 0-.794-.109-1.147-.326a2.118 2.118 0 0 1-.805-.873 2.155 2.155 0 0 1-.223-1.164c.034-.411.166-.788.394-1.13l12.294-16.233a.268.268 0 0 0 .052-.069.268.268 0 0 1 .051-.068c.069-.092.143-.172.223-.24.08-.069.165-.126.257-.171.137-.114.28-.2.428-.257a2.11 2.11 0 0 1 .496-.12h.274z" transform="translate(-335 -123)"/>
</svg>
