<svg xmlns="http://www.w3.org/2000/svg" xmlns:xlink="http://www.w3.org/1999/xlink" width="179" height="30" viewBox="0 0 179 30">
    <defs>
        <path id="a" d="M0 29.985h178.316V0H0z"/>
    </defs>
    <g fill="none" fill-rule="evenodd">
        <path fill="#000" d="M8.443 17.614c-.619 1.98-1.945 2.837-3.875 2.837C1.148 20.45 0 17.614 0 14.97c0-4.078 2.357-5.483 4.568-5.483 2.77 0 3.463 1.892 3.727 2.586l-1.326.34c-.221-.842-.987-1.832-2.401-1.832-2.388 0-3.125 2.379-3.125 4.389 0 1.58.368 4.387 3.125 4.387 1.517 0 2.24-.96 2.534-2.068l1.341.324zM10.84 15.842c0 1.714.47 3.531 2.312 3.531 1.842 0 2.314-1.817 2.314-3.531 0-1.684-.472-3.487-2.314-3.487-1.841 0-2.313 1.803-2.313 3.487m-1.356.015c0-2.246 1.003-4.537 3.67-4.537 3.094 0 3.67 2.778 3.67 4.537 0 2.26-1.002 4.55-3.67 4.55-3.094 0-3.67-2.777-3.67-4.55M18.85 11.498l1.519 4.993c.235.769.383 1.286.692 2.44h.074c.309-1.154.442-1.671.693-2.44l1.59-4.993h1.297l-2.843 8.73h-1.606l-2.86-8.73h1.445zM31.019 15.221c0-1.566-.708-2.865-2.093-2.865-1.356 0-2.092 1.077-2.27 2.865h4.363zm-4.362.975c.059 2.35 1.149 3.177 2.314 3.177 1.413 0 1.96-1.063 2.091-1.538l1.136.4c-.56 1.345-1.636 2.173-3.227 2.173-3.095 0-3.67-2.779-3.67-4.552 0-1.757.575-4.535 3.67-4.535 2.504 0 3.404 2.172 3.404 4.225v.65h-5.718zM33.961 11.498h1.297v1.551h.03c.766-1.064 1.783-1.64 2.873-1.64v1.3c-.648 0-1.812 0-2.903 1.463v6.057h-1.297v-8.731zM39.41 8.75h1.297v4.166c.707-.634 1.62-1.595 2.947-1.595 1.341 0 2.166.813 2.151 2.467v6.442H44.51v-5.97c0-.886-.207-1.757-1.282-1.757-1.21 0-1.99.886-2.52 1.508v6.219H39.41V8.75zM48.748 15.842c0 1.714.47 3.531 2.313 3.531 1.842 0 2.313-1.817 2.313-3.531 0-1.684-.471-3.487-2.313-3.487s-2.313 1.803-2.313 3.487m-1.356.015c0-2.246 1.002-4.537 3.669-4.537 3.095 0 3.67 2.778 3.67 4.537 0 2.26-1.002 4.55-3.67 4.55-3.094 0-3.67-2.777-3.67-4.55"/>
        <mask id="b" fill="#fff">
            <use xlink:href="#a"/>
        </mask>
        <path fill="#000" d="M56.42 20.23h1.297V8.75H56.42zM64.98 13.714c-.472-.664-1.268-1.3-2.108-1.3-1.872 0-2.107 2.186-2.107 3.325 0 1.433.31 3.575 2.122 3.575 1.119 0 1.855-.812 2.092-1.315v-4.285zm1.295 6.516H64.98v-1.138h-.029a2.783 2.783 0 0 1-2.387 1.315c-1.96 0-3.154-1.684-3.154-4.58 0-3.532 1.695-4.507 3.036-4.507.87 0 1.606.268 2.534 1.317V8.75h1.296V20.23zM73.58 15.221c0-1.566-.707-2.865-2.091-2.865-1.356 0-2.094 1.077-2.27 2.865h4.36zm-4.362.975c.06 2.35 1.15 3.177 2.315 3.177 1.413 0 1.958-1.063 2.09-1.538l1.136.4c-.56 1.345-1.636 2.173-3.226 2.173-3.096 0-3.67-2.779-3.67-4.552 0-1.757.574-4.535 3.67-4.535 2.504 0 3.403 2.172 3.403 4.225v.65h-5.718zM76.523 11.498h1.296v1.551h.031c.766-1.064 1.783-1.64 2.873-1.64v1.3c-.648 0-1.812 0-2.904 1.463v6.057h-1.296v-8.731zM89.794 15.827c-1.856 0-2.947.592-2.947 1.906 0 .797.383 1.552 1.459 1.552.531 0 1.238-.134 2.43-1.493v-1.965h-.942zm-3.831-2.32c.397-1.05 1.047-2.185 3.153-2.185 2.58 0 2.918 1.757 2.918 3.294v4.594c0 .193 0 .533.073 1.02h-1.37v-1.478h-.03c-.839 1.109-1.693 1.566-2.725 1.566-1.798 0-2.431-1.33-2.431-2.467 0-1.995 1.532-2.998 3.934-2.998h1.252v-.563c0-.59 0-1.994-1.694-1.994-1.076 0-1.576.606-1.96 1.551l-1.12-.34zM94.593 10.036l1.297-.547v2.704h2.05v.974h-2.05v4.817c0 .724.074 1.39 1.032 1.39.411 0 .634-.075 1.09-.253v1.034a3.729 3.729 0 0 1-1.223.252c-1.871 0-2.196-1.286-2.196-2.26v-4.98h-1.31v-.974h1.31v-2.157zM103.767 29.985h74.55V0h-74.55z" mask="url(#b)"/>
        <path fill="#FFF" d="M162.558 9.786c.074.856-.639 2.108-1.097 2.37l-.32-.337c.417-.618.335-2.033-.077-2.246l.043-.106c.336 0 .917.12 1.13.181.204.062.212.079.321.138M168.91 17.287c0 1.649-1.206 2.839-3.26 2.839-.805 0-1.903-.168-2.393-.411 0 0-.044-.069-.044-.35 0-.704.06-1.857.075-2.063h.426c.04.212.073.508.17.84.267.933 1.005 1.284 1.902 1.284.907 0 1.678-.49 1.678-1.501 0-.768-.474-1.153-1.388-1.936l-.533-.459c-1.148-.986-2.057-1.84-2.057-3.132 0-1.445 1.151-2.58 3.078-2.58.792 0 1.627.154 1.935.23.116.026.183.048.183.137 0 .164-.06.987-.06 1.983h-.38c-.267-.968-.45-1.665-1.816-1.665-1.084 0-1.524.736-1.524 1.405 0 .635.484 1.14 1.433 1.926l.533.443c1.38 1.145 2.043 1.756 2.043 3.01M149.683 10.384c-.577 0-1.024.168-1.525.775-.42.516-1.964 3.515-2.314 4.326-.129.294-.2.313-.2.916v1.223c0 .203-.007.67.032 1.205.025.37.15.652.534.703.177.024.584.046.761.046v.398h-4.281v-.398c.179 0 .66-.022.777-.046.134-.027.429-.084.472-.703.038-.535.047-1.002.047-1.205v-1.298c0-.446-.028-.467-.306-.979-.192-.35-1.687-3.217-2.132-3.882-.522-.772-.831-1.08-1.675-1.08v-.383h2.757s.049.169.426.959c.179.384 1.822 3.525 2.026 3.883 0 0 1.722-3.3 2.53-4.842h2.071v.382zM128.338 17.775s-.312 1.51-.41 1.878c-.078.281-.123.323-.123.323h-6.825v-.398c.191 0 .614-.038.73-.062.255-.05.365-.24.41-.612.058-.443.062-1.465.062-2.64v-2.491c0-1.941-.004-2.215-.03-2.626-.025-.438-.113-.64-.534-.736a5.113 5.113 0 0 0-.61-.028v-.38h2.851v1.113s-.015.682-.015 2.597v2.502c0 1.752-.005 2.493.259 2.725.215.185.727.257 1.705.257.892 0 1.191-.036 1.494-.338.256-.257.374-.525.518-1.084h.518zM120.065 17.775s-.31 1.51-.41 1.878c-.078.281-.122.323-.122.323h-6.827v-.398c.192 0 .615-.038.73-.062.256-.05.366-.24.414-.612.055-.443.06-1.465.06-2.64v-2.491c0-1.941-.005-2.215-.031-2.626-.025-.438-.113-.64-.532-.736a5.157 5.157 0 0 0-.611-.028v-.38h2.85v1.113s-.017.682-.017 2.597v2.502c0 1.752-.003 2.493.26 2.725.216.185.728.257 1.708.257.89 0 1.19-.036 1.493-.338.255-.257.373-.525.517-1.084h.518zM158.809 15.136c0-1.666-.665-2.693-1.205-3.212-1.172-1.124-2.569-1.266-3.55-1.266-.25 0-.719.045-.82.09-.112.055-.148.123-.15.26-.012.43-.018 1.529-.018 2.521v1.878c0 1.333.02 2.297.03 2.536.013.317.04.82.138.961.167.241.637.505 1.628.505 1.282 0 2.093-.248 2.849-.9.825-.714 1.098-2.08 1.098-3.373m1.767-.373c0 1.758-.673 3.076-1.386 3.806-.589.6-1.785 1.406-4.145 1.406h-4.936v-.397c.853-.026 1.172-.004 1.25-.718.062-.545.047-2.015.047-2.675v-2.412c0-1.942-.006-2.216-.03-2.627-.029-.436-.129-.639-.55-.735-.103-.022-.448-.027-.627-.027v-.381h4.023c1.594 0 3.715-.008 5.106 1.449.636.666 1.248 1.732 1.248 3.31M137.54 15.206c0-2.848-1.47-4.64-3.473-4.64-1.485 0-2.926 1.13-2.926 4.033 0 2.458 1.241 4.748 3.474 4.748 1.833 0 2.925-1.424 2.925-4.14m1.906-.457c0 2.98-1.94 5.394-5.167 5.394-3.57 0-4.998-2.788-4.998-5.165 0-2.416 1.5-5.161 5.12-5.161 3.187 0 5.045 2.008 5.045 4.932" mask="url(#b)"/>
    </g>
</svg>
