<svg xmlns="http://www.w3.org/2000/svg" width="100" height="199" viewBox="0 0 100 199">
    <path fill="#31CFDA" fill-rule="nonzero" d="M50.637 143.067l49.367 28.492a124.816 124.816 0 0 1-16.134 18.573l-21.784-12.606-.818-.522-3.122 2.387c-43.713 32.674-105.55 23.626-138.14-20.213l27.807-16.11c12.713 15.31 31.55 24.162 51.412 24.162s38.698-8.853 51.412-24.163zM-68.172 99.36a67.321 67.321 0 0 0 4.015 22.824l-27.955 16.185c-17.62-41.651-5.007-89.984 30.696-117.632 35.703-27.648 85.504-27.648 121.207 0 35.703 27.648 48.315 75.98 30.696 117.632l-27.88-16.185c9.248-25.417 2.51-53.917-17.13-72.46-19.64-18.544-48.405-23.564-73.134-12.764-24.728 10.8-40.664 35.344-40.515 62.4z" opacity=".3" style="mix-blend-mode:multiply"/>
</svg>
