<svg xmlns="http://www.w3.org/2000/svg" width="20" height="20" viewBox="0 0 20 20">
    <g fill="none" fill-rule="evenodd">
        <circle cx="10" cy="10" r="10" fill="#FFF"/>
        <path fill="#317BDA" d="M7.273 8.106v6.454h-2.15V8.106h2.15zm.137-1.992c.004.317-.106.581-.33.794-.223.213-.517.32-.882.32h-.013c-.356 0-.642-.107-.86-.32A1.067 1.067 0 0 1 5 6.114c0-.322.112-.588.335-.798.224-.21.516-.316.876-.316s.65.105.866.316c.217.21.328.476.333.798zm3.19 2.91c.083-.13.168-.246.255-.345.09-.104.213-.217.367-.338.155-.122.343-.216.567-.283.224-.068.472-.101.746-.101.742 0 1.339.246 1.79.739.452.492.678 1.214.678 2.165v3.699H12.86v-3.451c0-.456-.088-.813-.263-1.072-.176-.258-.45-.387-.824-.387-.274 0-.503.075-.687.224-.185.15-.323.336-.414.557-.048.13-.071.306-.071.528v3.601H8.458c.009-1.732.013-3.137.013-4.213 0-1.077-.002-1.72-.006-1.928l-.007-.313h2.143v.917z"/>
    </g>
</svg>
