<svg xmlns="http://www.w3.org/2000/svg" width="89" height="25" viewBox="0 0 89 25">
    <g fill="#FFF" fill-rule="nonzero">
        <path d="M41.759 17.625a6.319 6.319 0 0 1-2.207.42 4.893 4.893 0 0 1-4.308-2.572 5.46 5.46 0 0 1-.659-2.678 5.99 5.99 0 0 1 .641-2.849 4.458 4.458 0 0 1 1.78-1.857 5.61 5.61 0 0 1 2.733-.643h4.556v14.072h-2.58l.044-3.893zm-1.362-8.036c-2.1 0-3.15 1.113-3.15 3.34-.038.816.24 1.615.774 2.232.526.59 1.285.917 2.073.893a3.462 3.462 0 0 0 1.665-.438V9.571l-1.362.018zM51.834 7.277a5.779 5.779 0 0 1 2.794.678 4.777 4.777 0 0 1 1.94 1.866 5.55 5.55 0 0 1 .686 2.768 5.81 5.81 0 0 1-.659 2.822 4.724 4.724 0 0 1-1.94 1.91 5.78 5.78 0 0 1-2.821.697 5.717 5.717 0 0 1-2.813-.697 4.751 4.751 0 0 1-1.922-1.91 5.81 5.81 0 0 1-.659-2.822 5.505 5.505 0 0 1 .73-2.768 4.849 4.849 0 0 1 1.94-1.883 5.726 5.726 0 0 1 2.724-.661zm-2.67 5.357a3.938 3.938 0 0 0 .676 2.464 2.329 2.329 0 0 0 1.931.893 2.435 2.435 0 0 0 1.994-.893 3.92 3.92 0 0 0 .73-2.544 3.651 3.651 0 0 0-.73-2.438 2.47 2.47 0 0 0-1.985-.893 2.355 2.355 0 0 0-1.922.893 3.714 3.714 0 0 0-.703 2.5l.009.018zM60.858 7.473l2.332 6.01 2.305-6.01h2.76l-4.45 10.572h-1.22L58.072 7.473zM74.04 7.277a4.301 4.301 0 0 1 3.39 1.464 6.004 6.004 0 0 1 1.264 4.054v.41H71.77c.053.81.405 1.571.987 2.134.64.516 1.45.771 2.27.715.61 0 1.213-.116 1.78-.34a7.71 7.71 0 0 0 1.78-1.027v2.036a6.829 6.829 0 0 1-4.192 1.286 5.144 5.144 0 0 1-3.81-1.473 5.313 5.313 0 0 1-1.476-3.929 5.52 5.52 0 0 1 1.361-3.866 4.585 4.585 0 0 1 3.57-1.464zm2.26 4.33a3.095 3.095 0 0 0-.65-1.786 1.884 1.884 0 0 0-1.504-.642 2.097 2.097 0 0 0-1.575.607 3.094 3.094 0 0 0-.757 1.785l4.486.036zM86.401 7.277a2.3 2.3 0 0 1 1.015.24c.422.224.813.5 1.166.822l-.89 2.384a3.334 3.334 0 0 0-1.78-.893 1.884 1.884 0 0 0-1.184.474 3.356 3.356 0 0 0-1.006 1.303 3.724 3.724 0 0 0-.356 1.554v4.696h-2.59V7.473h2.59v2.679a7.216 7.216 0 0 1 1.424-2.17 2.257 2.257 0 0 1 1.611-.705zM18.921 18.018a8 8 0 0 1-6.154 2.892 8 8 0 0 1-6.154-2.892l-3.329 1.928c3.901 5.248 11.304 6.331 16.536 2.42l.374-.286.098.063 2.608 1.509a14.941 14.941 0 0 0 1.931-2.223l-5.91-3.411zM4.7 12.786a8.1 8.1 0 0 1 4.85-7.47 8.053 8.053 0 0 1 8.754 1.528 8.116 8.116 0 0 1 2.05 8.674l3.338 1.937c2.109-4.986.6-10.771-3.675-14.081a11.843 11.843 0 0 0-14.51 0 11.935 11.935 0 0 0-3.674 14.081l3.347-1.937a8.059 8.059 0 0 1-.48-2.732z"/>
    </g>
</svg>
