<svg xmlns="http://www.w3.org/2000/svg" width="20" height="20" viewBox="0 0 20 20">
    <g fill="none" fill-rule="evenodd">
        <circle cx="10" cy="10" r="10" fill="#FFF"/>
        <path fill="#317BDA" d="M15.005 6.975a4.005 4.005 0 0 1-1.017 1.06v.254c0 1.484-.534 2.83-1.6 4.039-1.067 1.208-2.484 1.812-4.25 1.812-1.131 0-2.177-.31-3.138-.933.226.029.389.043.488.043.946 0 1.794-.297 2.543-.89a2.064 2.064 0 0 1-1.187-.414 1.942 1.942 0 0 1-.72-1.007c.17.028.296.043.381.043.141 0 .325-.029.551-.085a2.072 2.072 0 0 1-1.176-.71 1.954 1.954 0 0 1-.477-1.304v-.021c.31.17.622.254.932.254-.607-.396-.911-.968-.911-1.717 0-.353.092-.692.276-1.017 1.088 1.342 2.494 2.056 4.218 2.14a1.853 1.853 0 0 1-.042-.466c0-.58.197-1.067.593-1.462A1.988 1.988 0 0 1 11.932 6c.58 0 1.074.219 1.484.657.424-.07.862-.24 1.314-.509-.141.495-.445.877-.912 1.145a3.5 3.5 0 0 0 1.187-.318z"/>
    </g>
</svg>
