<svg xmlns="http://www.w3.org/2000/svg" width="88" height="35" viewBox="0 0 88 35">
    <path fill="#5B7289" fill-rule="evenodd" d="M0 35V0h87.668v35H0zm59.93-11.972c-1.094 0-1.611-.24-1.865-.49-.214-.216-.305-.55-.305-2.156v-4.385c0-1.243.023-2.528.034-3.066.005-.167.04-.259.182-.325.128-.056.609-.11.928-.11 3.387 0 5.813 1.664 5.813 5.495 0 3.35-1.513 5.037-4.786 5.037zm5.33-9.515c-1.652-1.723-4.176-1.722-6.069-1.722H54.39v.363c.21 0 .672.01.793.036.502.11.62.355.657.87.027.49.036.813.036 3.116v3.043c0 .783.012 2.526-.056 3.173-.094.853-.507.82-1.52.853v.377h5.87c2.806 0 4.226-.951 4.926-1.664.849-.863 1.648-2.43 1.648-4.513 0-1.877-.726-3.139-1.485-3.932zm-28.68 9.531c-2.738 0-4.28-2.807-4.28-5.817 0-3.548 1.77-4.927 3.587-4.927 2.457 0 4.277 2.203 4.277 5.69 0 3.315-1.338 5.054-3.584 5.054zm-.275-11.467c-4.306 0-6.087 3.255-6.087 6.12 0 2.825 1.698 6.125 5.945 6.125 3.836 0 6.144-2.862 6.144-6.396 0-3.471-2.207-5.849-6.002-5.849zM19.33 21.07c-.174.674-.327 1.012-.634 1.323-.363.365-.738.416-1.813.416-1.184 0-1.84-.104-2.102-.327-.316-.27-.306-1.151-.306-3.262v-3.043c0-2.303.017-3.117.017-3.117v-1.268h-3.316v.363c.196 0 .603.01.724.036.5.11.604.355.636.87.027.49.035.813.035 3.116v3.043c0 1.397-.005 2.703-.07 3.225-.058.44-.185.666-.492.726-.136.026-.64.075-.869.075v.377h8.115s.054-.046.148-.377c.12-.444.47-2.176.47-2.176h-.543zm9.51 0c-.173.674-.325 1.012-.632 1.323-.364.365-.737.416-1.812.416-1.182 0-1.841-.104-2.102-.327-.318-.27-.31-1.151-.31-3.262v-3.043c0-2.303.018-3.117.018-3.117v-1.268h-3.315v.363c.197 0 .603.01.724.036.5.11.605.355.637.87.025.49.034.813.034 3.116v3.043c0 1.397-.005 2.703-.073 3.225-.055.44-.185.666-.49.726-.136.026-.64.075-.87.075v.377h8.118s.055-.046.149-.377c.118-.444.469-2.176.469-2.176h-.545zm23.593-8.046c.493-.605.901-.843 1.626-.87v-.362h-2.28c-.966 1.842-3.097 5.888-3.097 5.888-.24-.425-2.304-4.29-2.52-4.748-.448-.934-.509-1.14-.509-1.14h-3.167v.363c.209 0 .674.09.87.2.29.163.652.488 1.031 1.05.534.79 2.572 4.453 2.678 4.692.198.44.345.775.345 1.596v1.232c0 .241-.01.797-.053 1.432-.054.73-.399.8-.56.832-.14.03-.75.057-.96.057v.377h5.091v-.377c-.211 0-.73-.028-.942-.057-.457-.058-.603-.396-.636-.832-.044-.635-.034-1.191-.034-1.432v-1.232c0-.499.006-.975.233-1.522.274-.652 2.384-4.537 2.884-5.147zm21.126 3.844l-.71-.527c-1.173-.872-1.812-1.632-1.812-2.391 0-.879.707-1.667 2-1.667 1.61 0 1.851.7 2.23 1.995h.374c0-1.187.073-2.07.073-2.267 0-.106-.085-.128-.219-.163a11.04 11.04 0 0 0-2.3-.27c-2.288 0-3.658 1.346-3.658 3.06 0 1.531 1.011 2.609 2.446 3.715l.705.544c1.105.843 1.721 1.375 1.721 2.3 0 1.243-.862 1.883-2.139 1.883-1.067 0-2.011-.42-2.334-1.54-.113-.393-.186-.759-.242-1.012H69.3c-.013.237-.092 1.539-.092 2.373 0 .334.057.416.057.416.58.287 1.885.488 2.844.488 2.446 0 3.876-1.414 3.876-3.37 0-1.483-.711-2.294-2.425-3.567zm-4.765-5.327c-.129-.07-.14-.091-.382-.163-.253-.078-.87-.2-1.271-.2l-.014.05c.46.479.524 2.242 0 2.83l.36.289c.547-.307 1.393-1.793 1.307-2.806z"/>
</svg>
