<svg xmlns="http://www.w3.org/2000/svg" width="94" height="12" viewBox="0 0 94 12">
    <path fill="#5B7289" fill-rule="nonzero" d="M8.961 8.522a7.138 7.138 0 0 1-3.609.915C1.78 9.437 0 7.117 0 4.747 0 2.378 2.007.003 5.524.003a6.482 6.482 0 0 1 3.327.81v2.044a6.414 6.414 0 0 0-3.161-.94c-1.958 0-3.333 1.155-3.333 2.787 0 1.633 1.363 2.817 3.271 2.817 1.228 0 2.007-.374 3.327-1.012l.006 2.013zm8.035-.055a3.683 3.683 0 0 1-.903 2.737c-.613.614-1.442.89-3.02.767v-1.804c1.13.19 1.633-.51 1.633-1.657V.125h2.29v8.342zm14.338.055a7.138 7.138 0 0 1-3.61.915c-3.572 0-5.351-2.32-5.351-4.69 0-2.369 2.007-4.744 5.53-4.744a6.482 6.482 0 0 1 3.326.81v2.044a6.414 6.414 0 0 0-3.167-.946c-1.952.007-3.326 1.16-3.326 2.793 0 1.633 1.362 2.817 3.271 2.817 1.228 0 2.007-.374 3.327-1.012v2.013zm20.623.792h-7.003V.125h2.308v7.507h4.72l-.025 1.682zm8.09 0h-6.752V.125h6.66v1.682H55.56v1.927h4.192v1.688H55.56v2.21h4.487v1.682zM69.695.125h1.995v9.207H69.4V3.575L66.947 6.46h-.35L64.14 3.575v5.739h-2.29V.125h1.995l2.952 3.413L69.695.125zm23.956 9.189h-1.927L86.642 3.42v5.893h-2.29V.125h2.106l4.91 5.623V.125h2.29l-.007 9.189zm-55.596.123c-3.37 0-5.267-2.37-5.267-4.72-.024-2.222 1.787-4.714 5.267-4.714 3.48 0 5.254 2.504 5.254 4.72-.019 2.357-1.97 4.714-5.254 4.714zm0-7.52a2.695 2.695 0 0 0-2.91 2.806 2.695 2.695 0 0 0 2.91 2.798 2.695 2.695 0 0 0 2.897-2.805 2.695 2.695 0 0 0-2.897-2.798zm45.217 7.397h-2.455l-.755-1.842H75.95l-.688 1.842h-2.455L76.49.107h2.688l4.094 9.207zm-5.376-6.997l-1.35 3.572h2.829l-1.48-3.572z"/>
</svg>
