<svg xmlns="http://www.w3.org/2000/svg" width="96" height="22" viewBox="0 0 96 22">
    <path fill="#5B7289" fill-rule="nonzero" d="M60.554 21.824V11.316h6.68v1.53h-4.798v3.003h4.477v1.538h-4.477v2.867h4.95v1.57h-6.832zm-15.865 0h-.024v-4.389a5.526 5.526 0 0 0 0-.737 1.313 1.313 0 0 0-.2-.584.985.985 0 0 0-.425-.337 1.53 1.53 0 0 0-.592-.104 1.602 1.602 0 0 0-1.258.505c-.299.38-.45.855-.424 1.337v4.309h-1.818V10.988h1.826v4.701a2.33 2.33 0 0 1 .8-.929c.44-.281.953-.426 1.474-.416.682-.07 1.36.154 1.866.616.447.549.662 1.25.601 1.955v4.909h-1.826zm-6.07-4.885h.007-1.786a1.658 1.658 0 0 0-.4-1.002 1.33 1.33 0 0 0-1.025-.408 1.41 1.41 0 0 0-1.29.753 3.732 3.732 0 0 0-.392 1.826 4.004 4.004 0 0 0 .336 1.818 1.554 1.554 0 0 0 2.491.28c.212-.285.33-.63.336-.985h1.762a2.723 2.723 0 0 1-1.017 2.082 3.604 3.604 0 0 1-2.234.69 3.372 3.372 0 0 1-2.603-1.026 4.068 4.068 0 0 1-.913-2.795 4.06 4.06 0 0 1 .945-2.787 3.388 3.388 0 0 1 2.57-1.05 3.684 3.684 0 0 1 2.235.633c.613.47.974 1.198.977 1.97zm-9.78 4.885v-7.32h1.835v7.32H28.84zm-.007-8.762v-1.69H30.68v1.69h-1.85zm-3.492 8.762h-.016v-4.389a5.526 5.526 0 0 0 0-.737 1.321 1.321 0 0 0-.2-.584.985.985 0 0 0-.425-.337 1.522 1.522 0 0 0-.593-.104 1.602 1.602 0 0 0-1.257.505c-.299.38-.45.855-.424 1.337v4.309h-1.826v-7.312h1.778v1.217c.196-.394.495-.729.864-.969a2.707 2.707 0 0 1 1.498-.416 2.403 2.403 0 0 1 1.826.616c.447.549.663 1.25.6 1.955v4.909H25.34zm-11.205-7.312v4.38c-.004.25.009.499.04.746.024.205.095.403.209.576.099.153.241.273.408.345.188.077.39.116.593.112.477.033.94-.174 1.233-.553a2.675 2.675 0 0 0 .409-1.602v-4.004h1.77v7.312h-1.762v-1.21a2.443 2.443 0 0 1-.801.962c-.43.281-.936.426-1.45.416a2.499 2.499 0 0 1-1.842-.609 2.57 2.57 0 0 1-.616-1.898v-4.973h1.81zm-3.515 7.312H8.73v-8.858h-.04l-.153.489-.192.616-1.137 3.308-1.121 3.388H4.38l-1.09-3.204L2.195 14.4l-.216-.697-.208-.689h-.04v8.81H0v-10.78h2.86l.344.97.344.96.649 1.842.648 1.842c.152.457.233.825.345 1.081.112.257.112.4.112.4h.008l.112-.392c.08-.28.192-.624.344-1.08l.641-1.843.673-1.842.344-.969.345-.977h2.85v10.788zm62.909-1.57H86.31l-.73.785-.728.777H73.529v-1.562zm0-8.938H94.536l-.705.753-.697.753H73.529v-1.506zm19.317-3.099H73.529V6.695h17.675l.817.761.825.761zm-19.317 7.632h16.834l-.713.77-.713.768H73.53V15.85zm14.495-12.1H73.53V2.201H86.35l.84.77.833.776zm7.328 15.872H82.49l-.833-.776-.84-.777h14.535v1.553zm0-15.184v1.53H78.518l.713-.77.713-.76h15.408zm0 10.684H77.653l-.825-.761-.825-.761h19.349v1.522zM75.747 8.994h19.605V10.5H74.353l.697-.753.697-.753zm6.831-7.432L83.3.785 84.02 0h11.332v1.562H82.578zM57.03 21.824l-1.033-2.106-1.025-2.099h-1.89v4.205H51.2v-10.5h4.004a5.55 5.55 0 0 1 1.066.097c.349.065.688.176 1.009.328a2.69 2.69 0 0 1 1.602 2.595 2.907 2.907 0 0 1-.69 2.01c-.387.418-.879.725-1.425.889l1.17 2.29 1.169 2.29H57.03zm-3.94-5.726h1.898c.49.028.977-.104 1.386-.377.407-.336.623-.851.576-1.377a1.538 1.538 0 0 0-.592-1.322 2.25 2.25 0 0 0-1.33-.368H53.09v3.444z"/>
</svg>
