<svg xmlns="http://www.w3.org/2000/svg" xmlns:xlink="http://www.w3.org/1999/xlink" width="87" height="22" viewBox="0 0 87 22">
    <defs>
        <path id="a" d="M36.926 16.48l-.003-9.267h1.042v1.562h.054c.592-1.112 1.561-1.831 3.034-1.831 1.222 0 2.317.592 2.659 1.814.561-1.222 1.724-1.814 2.945-1.814 2.03 0 3.072 1.06 3.072 3.25v6.286h-1.132v-6.232c0-1.527-.575-2.353-2.191-2.353-1.958 0-2.514 1.617-2.514 3.34v5.245h-1.129v-6.285c.019-1.257-.502-2.299-1.94-2.299-1.957 0-2.747 1.472-2.765 3.412v5.172h-1.132zM48.98 4.7V3.656h10.164v1.042h-4.471V16.48H53.45V4.7H48.98zm9.493 11.78l.002-9.262h1.042v2.167h.036c.576-1.49 1.831-2.37 3.502-2.297V8.22c-2.047-.108-3.448 1.4-3.448 3.322v4.938h-1.134zm13.163-9.267v9.267h-1.043v-1.67h-.036c-.596 1.24-1.814 1.94-3.197 1.94-2.335 0-3.251-1.364-3.251-3.52V7.213h1.131v6.036c.054 1.669.683 2.55 2.479 2.55 1.939 0 2.783-1.832 2.783-3.719V7.213h1.134zm8.811 2.712l-1.13-.002c-.054-1.4-1.133-2.029-2.425-2.029-1.006 0-2.192.394-2.192 1.597 0 1.007 1.15 1.366 1.922 1.563l1.508.343c1.294.197 2.64.951 2.64 2.568 0 2.01-1.993 2.783-3.717 2.783-2.156 0-3.628-1.006-3.808-3.268h1.133c.09 1.526 1.222 2.317 2.73 2.317 1.06 0 2.533-.467 2.533-1.76 0-1.078-1.006-1.436-2.03-1.689l-1.454-.325c-1.474-.396-2.587-.898-2.587-2.478 0-1.883 1.85-2.601 3.485-2.601 1.843 0 3.32.967 3.392 2.98zm3.749-5.496l-.004 2.784h1.885v.952h-1.885v6.251c0 .737.107 1.167.915 1.221.326 0 .652-.018.976-.054v.97c-.343 0-.666.036-1.007.036-1.509 0-2.029-.502-2.011-2.083v-6.34h-1.617v-.953h1.617V4.43h1.131zm-54.609-.771h1.362L35.98 16.48h-1.312l-1.563-3.987h-5.837l-1.544 3.987h-1.312l5.174-12.822zm.627 1.219l-2.569 6.572h5.047l-2.478-6.572zM20.303 22H4.685l1.495-3.858H18.79L20.303 22z"/>
        <path id="b" d="M12.543 1.69l5.355 14.2H6.994l5.55-14.2zM0 0h10.803L1.929 22H0V0z"/>
    </defs>
    <g fill="none" fill-rule="evenodd">
        <g>
            <use fill="#004587" xlink:href="#a"/>
            <use fill="#5B7289" xlink:href="#a"/>
        </g>
        <g>
            <use fill="#37609D" xlink:href="#b"/>
            <use fill="#5B7289" xlink:href="#b"/>
        </g>
    </g>
</svg>
